<svg width="26" height="30" viewBox="0 0 26 30" fill="none" xmlns="http://www.w3.org/2000/svg">
<path d="M22.7227 9.18905L6.58815 26.7945H0.670226C0.259259 26.7945 -0.0695141 26.3836 0.0126792 25.9726L3.95796 0.986302C4.04015 0.410959 4.53331 0 5.10867 0H15.1363C22.0405 0.246576 23.9309 3.78082 22.698 9.20549L22.7227 9.18905Z" fill="#002C8A"/>
<path d="M22.9852 7.56152C25.451 8.87659 26.0264 11.3423 25.2044 14.63C24.1359 19.4793 20.9304 21.5341 16.2453 21.6163L14.9303 21.6985C14.4371 21.6985 14.1083 22.0273 14.0261 22.5204L12.9576 29.0136C12.8754 29.5889 12.3823 29.9999 11.8069 29.9999H6.8753C6.46434 29.9999 6.13556 29.5889 6.21776 29.178L8.02601 17.4245C8.1082 17.0136 22.9852 7.56152 22.9852 7.56152Z" fill="#009BE1"/>
<path d="M7.92773 17.9999L9.5716 7.56158C9.62552 7.31437 9.75943 7.09182 9.95258 6.92839C10.1457 6.76495 10.3874 6.66973 10.6401 6.65747H18.5307C20.4211 6.65747 21.8184 6.98624 22.9691 7.56158C22.5581 11.178 20.8321 17.0136 12.4484 17.178H8.83186C8.42089 17.178 8.00993 17.5068 7.92773 17.9999Z" fill="#001F6B"/>
</svg>
