<svg width="81" height="48" viewBox="0 0 81 48" fill="none" xmlns="http://www.w3.org/2000/svg">
<path d="M28.2205 15.2103H15.1162V25.0754H28.2205V15.2103Z" fill="#F8D7BC"/>
<path d="M13.791 14.4251V15.2103H28.1714V25.0754H13.791V25.8116H69.1039V14.4251H13.791Z" fill="#4E53BA"/>
<path d="M2.40527 26.8422H42.3562C46.6261 26.8422 50.1108 30.3269 50.1108 34.5968V35.1367C50.1108 39.4067 46.6752 42.8913 42.4053 42.8913H2.40527V26.8422Z" fill="#F8ECE2"/>
<path d="M72.0982 25.8116H0.490798C0.196319 25.8116 0 26.0079 0 26.3024C0 26.5968 0.196319 26.7932 0.490798 26.7932H42.1104C46.5276 26.7932 50.1104 30.376 50.1104 34.7932C50.1104 39.2103 46.5767 42.7932 42.1595 42.8422C42.1595 42.8422 42.1595 42.8422 42.1104 42.8422H0.490798C0.196319 42.8422 0 43.0386 0 43.333C0 43.6275 0.196319 43.8238 0.490798 43.8238H72.0982C76.5153 43.8238 80.0982 40.241 80.0982 35.8238V33.8606C80.0982 29.4435 76.5153 25.8606 72.0982 25.8116C72.0982 25.8606 72.0982 25.8606 72.0982 25.8116Z" fill="#FF5856"/>
<path d="M43.6323 30.2778H2.40527V29.7379H43.6323C43.7795 29.7379 43.9267 29.8852 43.9267 30.0324C43.9267 30.1797 43.7795 30.2778 43.6323 30.2778Z" fill="#EBD0BE"/>
<path d="M24.5886 22.7195H15.1162V22.1797H24.6377C24.7849 22.1797 24.9322 22.3269 24.9322 22.4741C24.8831 22.6214 24.7358 22.7195 24.5886 22.7195Z" fill="#E0C1A6"/>
<path d="M22.3309 19.6275H15.1162V19.0876H22.38C22.5273 19.0876 22.6745 19.1858 22.6745 19.3821C22.6254 19.4803 22.5273 19.6275 22.3309 19.6275Z" fill="#E0C1A6"/>
<path d="M46.6261 36.5109H2.40527V35.9711H46.6261C46.7734 35.9711 46.9206 36.1183 46.9206 36.2655C46.9206 36.4128 46.7734 36.5109 46.6261 36.5109Z" fill="#EBD0BE"/>
<path d="M41.1783 39.9956H2.40527V39.4066H41.1783C41.3255 39.4066 41.4728 39.5048 41.4728 39.652C41.4728 39.8484 41.3255 39.9465 41.1783 39.9956Z" fill="#EBD0BE"/>
<path d="M45.301 33.468H2.40527V32.9281H45.301C45.4482 32.9281 45.5955 33.0754 45.5955 33.2226C45.5464 33.3208 45.4482 33.468 45.301 33.468Z" fill="#EBD0BE"/>
<path d="M39.6565 13.5416H23.6074V7.60298H39.6565C40.589 7.60298 41.3252 8.33918 41.3252 9.27169V11.922C41.3252 12.8054 40.589 13.5416 39.6565 13.5416Z" fill="#F8D0B3"/>
<path d="M70.9198 6.67046H22.2327C21.9873 6.67046 21.791 6.86677 21.791 7.11217C21.791 7.35757 21.9873 7.55389 22.2327 7.55389H39.656C40.5886 7.55389 41.3248 8.29009 41.3248 9.2226V11.8238C41.3248 12.7563 40.5886 13.4925 39.656 13.4925H22.3309C22.0855 13.5416 21.8892 13.7379 21.9383 13.9833C21.9383 14.1797 22.1346 14.376 22.3309 14.376H70.9198C71.8524 14.376 72.5886 13.6398 72.5886 12.7073V8.29009C72.5886 7.50481 71.8033 6.67046 70.9198 6.67046Z" fill="#FF7A82"/>
<path d="M21.0059 0.535492H47.1654C48.6868 0.535492 49.9629 1.76249 49.9629 3.33304V3.52936C49.9629 5.05083 48.7359 6.3269 47.1654 6.3269H21.0059V0.535492Z" fill="#F8E7D8"/>
<path d="M65.7175 0.142853H19.877C19.7788 0.142853 19.6807 0.241012 19.6807 0.339172C19.6807 0.437331 19.7788 0.535491 19.877 0.535491H47.0672C48.6377 0.535491 49.9629 1.81156 49.9629 3.4312C49.9629 5.00175 48.6868 6.3269 47.0672 6.3269H19.877C19.7788 6.3269 19.6807 6.42506 19.6807 6.52322C19.6807 6.62138 19.7788 6.71954 19.877 6.71954H65.7175C67.288 6.71954 68.6132 5.44347 68.6132 3.82383V3.03856C68.6132 1.41893 67.288 0.142853 65.7175 0.142853Z" fill="#2B31BA"/>
<path d="M41.9629 5.00175H21.0059V4.75635H41.9629C42.012 4.75635 42.1102 4.80543 42.1102 4.90359C42.0611 4.95267 42.012 5.00175 41.9629 5.00175Z" fill="#DEBCA7"/>
<path d="M44.1715 2.15513H21.0059V1.90973H44.1715C44.2697 1.90973 44.3187 1.95881 44.3187 2.05697C44.3187 2.10605 44.2697 2.15513 44.1715 2.15513Z" fill="#DEBCA7"/>
<path d="M46.7727 3.57843H21.0059V3.28395H46.7727C46.8218 3.28395 46.92 3.33303 46.92 3.43119C46.92 3.48027 46.8709 3.57843 46.7727 3.57843Z" fill="#DEBCA7"/>
<path d="M36.4662 35.9711H30.0367C30.0367 35.9711 29.006 36.3146 28.1226 37.9833C27.0429 40.0447 27.3864 42.0079 26.6993 43.5294C26.2576 44.56 25.5214 45.3944 24.5889 45.9833C25.3251 46.0815 26.1103 46.1306 26.8956 46.0324C27.5337 45.8852 28.1226 45.6398 28.6134 45.2471C28.7606 45.5907 28.8097 45.9343 28.8588 46.2778C28.9079 46.6214 28.9079 47.014 28.8588 47.3576C28.8588 47.3576 31.2146 46.8177 32.1472 45.4435C33.4723 43.5784 32.3435 41.2717 34.1103 38.376C34.7484 37.4925 35.5337 36.6582 36.4662 35.9711Z" fill="#BFA990"/>
</svg>
