<svg width="8" height="8" viewBox="0 0 8 8" fill="none" xmlns="http://www.w3.org/2000/svg">
<path d="M6.56694 7.99996C6.371 7.99996 6.17506 7.92241 6.02403 7.77548L0.22349 1.97575C-0.0744967 1.6778 -0.0744967 1.19211 0.22349 0.890085C0.525559 0.59214 1.01132 0.59214 1.30931 0.890085L7.10984 6.68982C7.40783 6.98776 7.40783 7.47345 7.10984 7.77548C6.95881 7.92241 6.76287 7.99996 6.56694 7.99996Z" fill="white"/>
<path d="M0.766397 7.99996C0.570461 7.99996 0.374525 7.92241 0.22349 7.77548C-0.0744967 7.47345 -0.0744967 6.98776 0.22349 6.68982L6.02403 0.890085C6.32202 0.59214 6.80777 0.59214 7.10984 0.890085C7.40783 1.19211 7.40783 1.6778 7.10984 1.97575L1.30931 7.77548C1.15827 7.92241 0.962334 7.99996 0.766397 7.99996Z" fill="white"/>
</svg>
