<svg width="40" height="40" viewBox="0 0 40 40" fill="none" xmlns="http://www.w3.org/2000/svg">
<path fill-rule="evenodd" clip-rule="evenodd" d="M30.7855 11.057C30.7953 15.0205 31.1972 26.5837 31.2421 29.9708C31.2821 32.9996 30.0158 34.6667 26.6912 34.7132C19.8672 34.809 10.3857 34.5082 10.3857 34.5082L10.3652 31.9162L8.57129 31.8685C7.48002 30.338 8.19713 28.2395 9.83041 28.2438L10.336 28.2698L10.3138 25.4588L8.55451 25.4118C7.46359 23.8812 8.18069 21.7828 9.81398 21.7871L10.2848 21.811L10.2627 19.001L8.53812 18.9554C7.44686 17.4248 8.16391 15.3261 9.7972 15.3303L10.2337 15.3529L10.2117 12.5432L8.52164 12.4983C7.43038 10.9677 8.14744 8.86896 9.78072 8.87323L10.1825 8.8937L10.1623 6.3602C10.1623 6.3602 19.568 5.98438 26.0399 6.0005C28.9296 6.00808 30.7759 7.28944 30.7855 11.057ZM17.6953 16.6907C18.2138 20.8262 23.9983 21.2715 23.9859 16.3815C23.9732 11.5543 17.1562 12.3924 17.6953 16.6907ZM14.6819 23.7345L15.4796 26.3199L26.418 26.1179L27.2028 23.7669C24.204 20.6896 17.6378 20.7013 14.6819 23.7345Z" fill="url(#paint0_linear_726_88)"/>
<defs>
<linearGradient id="paint0_linear_726_88" x1="5.16197" y1="6.97411" x2="42.4856" y2="21.9941" gradientUnits="userSpaceOnUse">
<stop stop-color="#7979FC"/>
<stop offset="1" stop-color="#9B9BFF"/>
</linearGradient>
</defs>
</svg>
