<svg width="25" height="25" viewBox="0 0 25 25" fill="none" xmlns="http://www.w3.org/2000/svg">
<path d="M15.875 2.0835H11.8185C9.98082 2.08349 8.52519 2.08346 7.38598 2.23725C6.21355 2.39551 5.2646 2.72895 4.51624 3.48033C3.76789 4.23169 3.43576 5.18445 3.27814 6.36159C3.12497 7.50537 3.12499 8.96685 3.125 10.8119V16.8928C3.125 17.2529 3.17538 17.6013 3.26944 17.9312C3.69509 19.4238 5.37491 18.5439 5.375 16.9918V11.8727V11.7735C5.37493 10.4384 5.37485 9.28812 5.49821 8.36694C5.63041 7.37972 5.92853 6.43341 6.69302 5.66585C7.45751 4.89828 8.40004 4.59896 9.38331 4.46624C10.3008 4.34239 11.4466 4.34245 12.7762 4.34253L12.875 4.34254H15.875L15.9737 4.34253C17.4954 4.34244 18.4098 2.67943 16.9526 2.24126C16.6113 2.13863 16.2496 2.0835 15.875 2.0835Z" fill="url(#paint0_linear_847_116)"/>
<path d="M6.875 11.8722C6.875 9.03245 6.875 7.61256 7.75368 6.73035C8.63235 5.84814 10.0466 5.84814 12.875 5.84814H15.875C18.7034 5.84814 20.1176 5.84814 20.9964 6.73035C21.875 7.61256 21.875 9.03246 21.875 11.8722V16.8924C21.875 19.7321 21.875 21.152 20.9964 22.0342C20.1176 22.9164 18.7034 22.9164 15.875 22.9164H12.875C10.0466 22.9164 8.63235 22.9164 7.75368 22.0342C6.875 21.152 6.875 19.7321 6.875 16.8924V11.8722Z" fill="url(#paint1_linear_847_116)"/>
<defs>
<linearGradient id="paint0_linear_847_116" x1="3.12043" y1="2.08349" x2="32.2361" y2="20.3693" gradientUnits="userSpaceOnUse">
<stop stop-color="#7979FC"/>
<stop offset="1" stop-color="#9B9BFF"/>
</linearGradient>
<linearGradient id="paint1_linear_847_116" x1="6.87078" y1="5.84814" x2="33.9192" y2="22.6633" gradientUnits="userSpaceOnUse">
<stop stop-color="#7979FC"/>
<stop offset="1" stop-color="#9B9BFF"/>
</linearGradient>
</defs>
</svg>
