<svg width="40" height="40" viewBox="0 0 40 40" fill="none" xmlns="http://www.w3.org/2000/svg">
<path d="M28.001 8.8V10.2H25.001V8.8H16.001V10.2H13.001V8.8C13.001 8.05739 13.317 7.3452 13.8797 6.8201C14.4423 6.295 15.2053 6 16.001 6H25.001C25.7966 6 26.5597 6.295 27.1223 6.8201C27.6849 7.3452 28.001 8.05739 28.001 8.8Z" fill="url(#paint0_linear_726_179)"/>
<path d="M32.5 11.6001H8.5C8.10218 11.6001 7.72064 11.7476 7.43934 12.0101C7.15804 12.2727 7 12.6288 7 13.0001C7 13.3714 7.15804 13.7275 7.43934 13.99C7.72064 14.2526 8.10218 14.4001 8.5 14.4001H10.105L11.41 31.3961C11.4632 32.1042 11.8027 32.767 12.3596 33.2505C12.9165 33.7339 13.6494 34.0018 14.41 34.0001H26.62C27.3806 34.0018 28.1135 33.7339 28.6704 33.2505C29.2273 32.767 29.5668 32.1042 29.62 31.3961L30.895 14.4001H32.5C32.8978 14.4001 33.2794 14.2526 33.5607 13.99C33.842 13.7275 34 13.3714 34 13.0001C34 12.6288 33.842 12.2727 33.5607 12.0101C33.2794 11.7476 32.8978 11.6001 32.5 11.6001ZM22 27.0001C22 27.3714 21.842 27.7275 21.5607 27.9901C21.2794 28.2526 20.8978 28.4001 20.5 28.4001C20.1022 28.4001 19.7206 28.2526 19.4393 27.9901C19.158 27.7275 19 27.3714 19 27.0001V18.6001C19 18.2288 19.158 17.8727 19.4393 17.6101C19.7206 17.3476 20.1022 17.2001 20.5 17.2001C20.8978 17.2001 21.2794 17.3476 21.5607 17.6101C21.842 17.8727 22 18.2288 22 18.6001V27.0001Z" fill="url(#paint1_linear_726_179)"/>
<defs>
<linearGradient id="paint0_linear_726_179" x1="12.9968" y1="6" x2="17.1222" y2="15.8365" gradientUnits="userSpaceOnUse">
<stop stop-color="#7979FC"/>
<stop offset="1" stop-color="#9B9BFF"/>
</linearGradient>
<linearGradient id="paint1_linear_726_179" x1="6.99241" y1="11.6001" x2="37.1229" y2="35.8466" gradientUnits="userSpaceOnUse">
<stop stop-color="#7979FC"/>
<stop offset="1" stop-color="#9B9BFF"/>
</linearGradient>
</defs>
</svg>
