<svg width="40" height="37" viewBox="0 0 40 37" fill="none" xmlns="http://www.w3.org/2000/svg">
<path d="M10.6199 14.7746C10.2777 15.2412 10.0289 15.8011 9.96667 16.4076L3.71463 12.1152L2.47044 11.2754L2.33047 10.7466L1.97276 9.39353L1.78613 8.70923L2.40823 9.14469L3.71463 10.0312L10.6199 14.7746Z" fill="#FF7F00"/>
<path d="M24.4293 14.2615V14.3082C24.2116 14.5052 24.0197 14.7281 23.8539 14.9769L20.5879 7.0608L20.0435 5.73885L19.9502 5.49001L19.8102 5.83217L19.297 7.10745L16.1554 14.8681C15.9895 14.6296 15.7926 14.417 15.5645 14.2304L19.297 5.02344L19.8102 3.74816L19.9502 3.40601L20.0435 3.65484L20.5879 4.97679L24.4293 14.2615Z" fill="#FF7F00"/>
<path d="M38.209 8.70923L37.898 9.84454L37.618 10.8866L37.5092 11.2754L36.6849 11.8508L36.3272 12.0841L30.1218 16.3454C30.0285 15.7389 29.7952 15.1945 29.4375 14.728L36.3272 10.0001L36.6849 9.76678L38.209 8.70923Z" fill="#FF7F00"/>
<path d="M37.5101 11.2754L32.9533 28.243L32.5178 29.8449L32.4401 30.1559H7.55632L7.463 29.8293L2.4707 11.2754L3.71489 12.1153L9.96694 16.4077C9.9462 16.5529 9.93583 16.698 9.93583 16.8432C9.93583 17.2061 9.98767 17.5534 10.0914 17.8852C10.5424 19.2693 11.8332 20.2647 13.3573 20.2647C14.8815 20.2647 16.1723 19.2693 16.6233 17.8852C16.7322 17.5586 16.7789 17.2009 16.7789 16.8432C16.7789 16.1122 16.5456 15.4279 16.1568 14.868L19.2983 7.10743L19.8116 5.83214L19.9515 5.48999L20.0449 5.73883L20.5892 7.06077L23.8552 14.9769C23.513 15.5057 23.3109 16.1589 23.3109 16.8432C23.3109 17.2009 23.3731 17.5586 23.4664 17.8852C23.9174 19.2693 25.2082 20.2647 26.7324 20.2647C28.2565 20.2647 29.5629 19.2693 29.9984 17.8852C30.1072 17.5586 30.1539 17.2009 30.1539 16.8432C30.1539 16.6773 30.1435 16.5114 30.1228 16.3455L36.3282 12.0842L36.6859 11.8509L37.5101 11.2754Z" fill="#FFA300"/>
<path d="M32.9542 28.5384V33.173H7.04395V28.5228C7.43275 26.5944 13.0938 25.0547 19.9991 25.0547C26.9199 25.0547 32.5809 26.5944 32.9542 28.5384Z" fill="#FFCE00"/>
<path d="M33.9797 32.971C33.9797 35.1794 27.7121 36.9524 19.9982 36.9524C12.2842 36.9524 6.0166 35.1794 6.0166 32.971C6.0166 30.7781 12.2842 29.0051 19.9982 29.0051C27.7121 29.0051 33.9797 30.7781 33.9797 32.971Z" fill="#FF6700"/>
<path d="M32.8448 33.7019C32.8448 35.2105 27.0905 36.4391 19.9986 36.4391C12.9067 36.4391 7.15234 35.2105 7.15234 33.7019C7.15234 32.2089 12.9067 30.9802 19.9986 30.9802C27.0905 30.9802 32.8448 32.2089 32.8448 33.7019Z" fill="#542200"/>
<path d="M39.9997 9.20686C39.9997 10.7154 38.771 11.9596 37.2469 11.9596C36.1427 11.9596 35.194 11.3064 34.7585 10.3577C34.5875 10.0156 34.4941 9.61122 34.4941 9.20686C34.4941 7.68273 35.7228 6.4541 37.2469 6.4541C37.8068 6.4541 38.32 6.60962 38.7399 6.88956C39.502 7.37169 39.9997 8.22706 39.9997 9.20686Z" fill="#D82E00"/>
<path d="M39.0043 8.05599C39.0043 9.58011 37.7757 10.8087 36.2516 10.8087C35.6917 10.8087 35.1784 10.6377 34.7585 10.3577C34.5875 10.0156 34.4941 9.61122 34.4941 9.20686C34.4941 7.68273 35.7228 6.4541 37.2469 6.4541C37.8068 6.4541 38.32 6.60962 38.7399 6.88956C38.911 7.24727 39.0043 7.63607 39.0043 8.05599Z" fill="#FF3C00"/>
<path d="M5.50554 9.20686C5.50554 10.7154 4.26135 11.9596 2.75277 11.9596C1.64855 11.9596 0.684309 11.3064 0.248843 10.3577C0.0933198 10.0156 0 9.61122 0 9.20686C0 7.68273 1.22864 6.4541 2.75277 6.4541C3.2971 6.4541 3.81032 6.60962 4.24579 6.88956C4.9923 7.37169 5.50554 8.22706 5.50554 9.20686Z" fill="#D82E00"/>
<path d="M4.49463 8.05599C4.49463 9.58011 3.266 10.8087 1.74187 10.8087C1.19753 10.8087 0.684309 10.6377 0.248843 10.3577C0.0933198 10.0156 0 9.61122 0 9.20686C0 7.68273 1.22864 6.4541 2.75277 6.4541C3.2971 6.4541 3.81032 6.60962 4.24579 6.88956C4.40131 7.24727 4.49463 7.63607 4.49463 8.05599Z" fill="#FF3C00"/>
<path d="M22.7516 2.75276C22.7516 4.27688 21.523 5.50551 19.9989 5.50551C18.8946 5.50551 17.9304 4.85232 17.4949 3.91918C17.3394 3.56148 17.2461 3.17267 17.2461 2.75276C17.2461 1.22863 18.4747 0 19.9989 0C20.5432 0 21.0564 0.155521 21.4919 0.435463C22.2539 0.933136 22.7516 1.78851 22.7516 2.75276Z" fill="#D82E00"/>
<path d="M21.7407 1.60189C21.7407 3.12601 20.5121 4.35464 18.988 4.35464C18.4436 4.35464 17.9304 4.19912 17.4949 3.91918C17.3394 3.56148 17.2461 3.17267 17.2461 2.75276C17.2461 1.22863 18.4747 0 19.9989 0C20.5432 0 21.0564 0.155521 21.4919 0.435463C21.6474 0.793166 21.7407 1.18197 21.7407 1.60189Z" fill="#FF3C00"/>
<path d="M6.99707 27.7764C8.4901 26.1279 13.7468 24.9148 20.0144 24.9148C26.2353 24.9148 31.4765 26.1123 33.0006 27.7453" stroke="white" stroke-width="0.622093" stroke-linecap="round" stroke-linejoin="round"/>
<path d="M23.873 24.8059L20.0005 28.6939L16.1279 24.8059L20.0005 20.9333L23.873 24.8059Z" fill="white"/>
<path d="M22.9559 24.806L20.001 27.7609V21.8511L22.9559 24.806Z" fill="#D82E00"/>
<path d="M20.0008 21.8508V27.7607L17.0459 24.8058L20.0008 21.8508Z" fill="#FF3C00"/>
<path d="M20.746 17.8229C20.746 18.2273 20.4038 18.5694 19.9994 18.5694C19.5795 18.5694 19.2529 18.2273 19.2529 17.8229C19.2529 17.403 19.5795 17.0764 19.9994 17.0764C20.4038 17.0764 20.746 17.403 20.746 17.8229Z" fill="white"/>
<path d="M20.746 12.8774C20.746 13.2973 20.4038 13.6239 19.9994 13.6239C19.5795 13.6239 19.2529 13.2973 19.2529 12.8774C19.2529 12.473 19.5795 12.1309 19.9994 12.1309C20.4038 12.1309 20.746 12.473 20.746 12.8774Z" fill="white"/>
</svg>
