<svg width="28" height="26" viewBox="0 0 28 26" fill="none" xmlns="http://www.w3.org/2000/svg">
<g clip-path="url(#clip0_440_60)">
<path fill-rule="evenodd" clip-rule="evenodd" d="M6.62475 13C6.62475 12.1881 6.7668 11.4096 7.02064 10.6795L2.58003 7.46249C1.71455 9.12949 1.22705 11.008 1.22705 13C1.22705 14.9904 1.71414 16.8676 2.57818 18.5336L7.01632 15.3103C6.76495 14.5836 6.62475 13.808 6.62475 13Z" fill="#FBBC05"/>
<path fill-rule="evenodd" clip-rule="evenodd" d="M14.4215 5.61367C16.2807 5.61367 17.96 6.23867 19.2794 7.26133L23.1177 3.625C20.7788 1.69316 17.7801 0.5 14.4215 0.5C9.20724 0.5 4.72586 3.32891 2.58008 7.4625L7.02049 10.6795C8.04366 7.73301 10.9602 5.61367 14.4215 5.61367Z" fill="#EA4335"/>
<path fill-rule="evenodd" clip-rule="evenodd" d="M14.4215 20.3863C10.9604 20.3863 8.04387 18.267 7.02069 15.3205L2.58008 18.5369C4.72586 22.6711 9.20724 25.5 14.4215 25.5C17.6397 25.5 20.7123 24.4158 23.0182 22.3846L18.8032 19.2932C17.6139 20.0039 16.1162 20.3863 14.4215 20.3863Z" fill="#34A853"/>
<path fill-rule="evenodd" clip-rule="evenodd" d="M27.0159 13C27.0159 12.2613 26.8959 11.4658 26.7159 10.7273H14.4214V15.5568H21.4984C21.1445 17.2035 20.1814 18.4693 18.8031 19.2932L23.0181 22.3846C25.4404 20.2518 27.0159 17.0744 27.0159 13Z" fill="#4285F4"/>
</g>
<defs>
<clipPath id="clip0_440_60">
<rect width="26.3514" height="25" fill="white" transform="translate(0.945801 0.5)"/>
</clipPath>
</defs>
</svg>
