<svg width="132" height="60" viewBox="0 0 132 60" fill="none" xmlns="http://www.w3.org/2000/svg">
<rect width="132" height="60" rx="10" fill="#EDEAFC"/>
<path fill-rule="evenodd" clip-rule="evenodd" d="M38.3601 17.2399L45.2535 21.2266C48.0668 23.1199 48.2268 23.3999 48.2268 26.3733V33.6265C48.2268 36.5999 48.0668 36.8799 45.3068 38.7465L38.3468 42.7599C37.6935 43.1465 36.8401 43.3332 36.0001 43.3332C35.1601 43.3332 34.3068 43.1465 33.6401 42.7599L26.7468 38.7732C23.9334 36.8799 23.7734 36.5865 23.7734 33.6132V26.3733C23.7734 23.3999 23.9334 23.1199 26.6934 21.2533L33.6535 17.2399C34.9735 16.4799 37.0401 16.4799 38.3601 17.2399ZM40.3333 30C40.3333 32.3932 38.3932 34.3333 36 34.3333C33.6068 34.3333 31.6667 32.3932 31.6667 30C31.6667 27.6068 33.6068 25.6667 36 25.6667C38.3932 25.6667 40.3333 27.6068 40.3333 30Z" fill="url(#paint0_linear_660_302)"/>
<path d="M72.0938 32.3906C72.0938 33.0677 71.9271 33.651 71.5938 34.1406C71.2656 34.6302 70.7917 35.0052 70.1719 35.2656C69.5573 35.526 68.8229 35.6562 67.9688 35.6562C67.5521 35.6562 67.1536 35.6328 66.7734 35.5859C66.3932 35.5391 66.0339 35.4714 65.6953 35.3828C65.362 35.2891 65.0573 35.1771 64.7812 35.0469V33.2812C65.2448 33.4844 65.763 33.6693 66.3359 33.8359C66.9089 33.9974 67.4922 34.0781 68.0859 34.0781C68.5703 34.0781 68.9714 34.0156 69.2891 33.8906C69.612 33.7604 69.8516 33.5781 70.0078 33.3438C70.1641 33.1042 70.2422 32.8255 70.2422 32.5078C70.2422 32.1693 70.151 31.8828 69.9688 31.6484C69.7865 31.4141 69.5104 31.2005 69.1406 31.0078C68.776 30.8099 68.3177 30.599 67.7656 30.375C67.3906 30.224 67.0312 30.0521 66.6875 29.8594C66.349 29.6667 66.0469 29.4401 65.7812 29.1797C65.5156 28.9193 65.3047 28.612 65.1484 28.2578C64.9974 27.8984 64.9219 27.4766 64.9219 26.9922C64.9219 26.3464 65.0755 25.7943 65.3828 25.3359C65.6953 24.8776 66.1328 24.526 66.6953 24.2812C67.263 24.0365 67.9245 23.9141 68.6797 23.9141C69.2786 23.9141 69.8411 23.9766 70.3672 24.1016C70.8984 24.2266 71.4193 24.4036 71.9297 24.6328L71.3359 26.1406C70.8672 25.9479 70.4115 25.7943 69.9688 25.6797C69.5312 25.5651 69.0833 25.5078 68.625 25.5078C68.2292 25.5078 67.8932 25.5677 67.6172 25.6875C67.3411 25.8073 67.1302 25.9766 66.9844 26.1953C66.8438 26.4089 66.7734 26.6641 66.7734 26.9609C66.7734 27.2943 66.8542 27.5755 67.0156 27.8047C67.1823 28.0286 67.4375 28.2344 67.7812 28.4219C68.1302 28.6094 68.5781 28.8177 69.125 29.0469C69.7552 29.3073 70.2891 29.5807 70.7266 29.8672C71.1693 30.1536 71.5078 30.4974 71.7422 30.8984C71.9766 31.2943 72.0938 31.7917 72.0938 32.3906ZM77.5547 26.6875C78.3255 26.6875 78.987 26.8464 79.5391 27.1641C80.0911 27.4818 80.5156 27.9323 80.8125 28.5156C81.1094 29.099 81.2578 29.7969 81.2578 30.6094V31.5938H75.4844C75.5052 32.4323 75.7292 33.0781 76.1562 33.5312C76.5885 33.9844 77.1927 34.2109 77.9688 34.2109C78.5208 34.2109 79.0156 34.1589 79.4531 34.0547C79.8958 33.9453 80.3516 33.7865 80.8203 33.5781V35.0703C80.388 35.2734 79.9479 35.4219 79.5 35.5156C79.0521 35.6094 78.5156 35.6562 77.8906 35.6562C77.0417 35.6562 76.2943 35.4922 75.6484 35.1641C75.0078 34.8307 74.5052 34.3359 74.1406 33.6797C73.7812 33.0234 73.6016 32.2083 73.6016 31.2344C73.6016 30.2656 73.7656 29.4427 74.0938 28.7656C74.4219 28.0885 74.8828 27.5729 75.4766 27.2188C76.0703 26.8646 76.763 26.6875 77.5547 26.6875ZM77.5547 28.0703C76.9766 28.0703 76.5078 28.2578 76.1484 28.6328C75.7943 29.0078 75.5859 29.5573 75.5234 30.2812H79.4609C79.4557 29.849 79.3828 29.4661 79.2422 29.1328C79.1068 28.7995 78.8984 28.5391 78.6172 28.3516C78.3411 28.1641 77.987 28.0703 77.5547 28.0703ZM86.5469 34.1719C86.7865 34.1719 87.0234 34.151 87.2578 34.1094C87.4922 34.0625 87.7057 34.0078 87.8984 33.9453V35.3359C87.6953 35.4245 87.4323 35.5 87.1094 35.5625C86.7865 35.625 86.4505 35.6562 86.1016 35.6562C85.612 35.6562 85.1719 35.5755 84.7812 35.4141C84.3906 35.2474 84.0807 34.9635 83.8516 34.5625C83.6224 34.1615 83.5078 33.6068 83.5078 32.8984V28.25H82.3281V27.4297L83.5938 26.7812L84.1953 24.9297H85.3516V26.8516H87.8281V28.25H85.3516V32.875C85.3516 33.3125 85.4609 33.638 85.6797 33.8516C85.8984 34.0651 86.1875 34.1719 86.5469 34.1719ZM92.875 34.1719C93.1146 34.1719 93.3516 34.151 93.5859 34.1094C93.8203 34.0625 94.0339 34.0078 94.2266 33.9453V35.3359C94.0234 35.4245 93.7604 35.5 93.4375 35.5625C93.1146 35.625 92.7786 35.6562 92.4297 35.6562C91.9401 35.6562 91.5 35.5755 91.1094 35.4141C90.7188 35.2474 90.4089 34.9635 90.1797 34.5625C89.9505 34.1615 89.8359 33.6068 89.8359 32.8984V28.25H88.6562V27.4297L89.9219 26.7812L90.5234 24.9297H91.6797V26.8516H94.1562V28.25H91.6797V32.875C91.6797 33.3125 91.7891 33.638 92.0078 33.8516C92.2266 34.0651 92.5156 34.1719 92.875 34.1719ZM97.8203 26.8516V35.5H95.9844V26.8516H97.8203ZM96.9141 23.5391C97.1953 23.5391 97.4375 23.6146 97.6406 23.7656C97.849 23.9167 97.9531 24.1771 97.9531 24.5469C97.9531 24.9115 97.849 25.1719 97.6406 25.3281C97.4375 25.4792 97.1953 25.5547 96.9141 25.5547C96.6224 25.5547 96.375 25.4792 96.1719 25.3281C95.974 25.1719 95.875 24.9115 95.875 24.5469C95.875 24.1771 95.974 23.9167 96.1719 23.7656C96.375 23.6146 96.6224 23.5391 96.9141 23.5391ZM104.961 26.6875C105.935 26.6875 106.693 26.9401 107.234 27.4453C107.781 27.9453 108.055 28.75 108.055 29.8594V35.5H106.219V30.2031C106.219 29.5312 106.081 29.0286 105.805 28.6953C105.529 28.3568 105.102 28.1875 104.523 28.1875C103.685 28.1875 103.102 28.4453 102.773 28.9609C102.451 29.4766 102.289 30.224 102.289 31.2031V35.5H100.453V26.8516H101.883L102.141 28.0234H102.242C102.43 27.7214 102.661 27.474 102.938 27.2812C103.219 27.0833 103.531 26.9349 103.875 26.8359C104.224 26.737 104.586 26.6875 104.961 26.6875ZM113.094 39.3438C111.922 39.3438 111.023 39.1328 110.398 38.7109C109.773 38.2891 109.461 37.6979 109.461 36.9375C109.461 36.4062 109.628 35.9557 109.961 35.5859C110.294 35.2214 110.771 34.9688 111.391 34.8281C111.156 34.724 110.953 34.5625 110.781 34.3438C110.615 34.1198 110.531 33.8724 110.531 33.6016C110.531 33.2786 110.622 33.0026 110.805 32.7734C110.987 32.5443 111.26 32.3229 111.625 32.1094C111.172 31.9167 110.807 31.6042 110.531 31.1719C110.26 30.7344 110.125 30.2214 110.125 29.6328C110.125 29.0078 110.258 28.4766 110.523 28.0391C110.789 27.5964 111.177 27.2604 111.688 27.0312C112.198 26.7969 112.815 26.6797 113.539 26.6797C113.695 26.6797 113.865 26.6901 114.047 26.7109C114.234 26.7266 114.406 26.7474 114.562 26.7734C114.724 26.7943 114.846 26.8177 114.93 26.8438H117.922V27.8672L116.453 28.1406C116.594 28.3385 116.706 28.5651 116.789 28.8203C116.872 29.0703 116.914 29.3438 116.914 29.6406C116.914 30.5365 116.604 31.2422 115.984 31.7578C115.37 32.2682 114.521 32.5234 113.438 32.5234C113.177 32.513 112.924 32.4922 112.68 32.4609C112.492 32.5755 112.349 32.7031 112.25 32.8438C112.151 32.9792 112.102 33.1328 112.102 33.3047C112.102 33.4453 112.151 33.5599 112.25 33.6484C112.349 33.7318 112.495 33.7943 112.688 33.8359C112.885 33.8776 113.125 33.8984 113.406 33.8984H114.898C115.846 33.8984 116.57 34.099 117.07 34.5C117.57 34.901 117.82 35.4896 117.82 36.2656C117.82 37.25 117.414 38.0078 116.602 38.5391C115.789 39.0755 114.62 39.3438 113.094 39.3438ZM113.164 38.0547C113.805 38.0547 114.344 37.9922 114.781 37.8672C115.219 37.7422 115.549 37.5625 115.773 37.3281C115.997 37.099 116.109 36.8255 116.109 36.5078C116.109 36.2266 116.039 36.0104 115.898 35.8594C115.758 35.7083 115.547 35.6042 115.266 35.5469C114.984 35.4896 114.635 35.4609 114.219 35.4609H112.859C112.521 35.4609 112.221 35.513 111.961 35.6172C111.701 35.7266 111.497 35.8828 111.352 36.0859C111.211 36.2891 111.141 36.5339 111.141 36.8203C111.141 37.2161 111.315 37.5208 111.664 37.7344C112.018 37.9479 112.518 38.0547 113.164 38.0547ZM113.523 31.3203C114.06 31.3203 114.458 31.1745 114.719 30.8828C114.979 30.5859 115.109 30.1693 115.109 29.6328C115.109 29.0495 114.974 28.612 114.703 28.3203C114.438 28.0286 114.042 27.8828 113.516 27.8828C113 27.8828 112.607 28.0312 112.336 28.3281C112.07 28.625 111.938 29.0651 111.938 29.6484C111.938 30.1745 112.07 30.5859 112.336 30.8828C112.607 31.1745 113.003 31.3203 113.523 31.3203Z" fill="black"/>
<defs>
<linearGradient id="paint0_linear_660_302" x1="24.0791" y1="17.0032" x2="49.9788" y2="40.7563" gradientUnits="userSpaceOnUse">
<stop stop-color="#7979FC"/>
<stop offset="1" stop-color="#9B9BFF"/>
</linearGradient>
</defs>
</svg>
