<svg width="132" height="60" viewBox="0 0 132 60" fill="none" xmlns="http://www.w3.org/2000/svg">
<rect width="132" height="60" rx="10" fill="#EDEAFC"/>
<path fill-rule="evenodd" clip-rule="evenodd" d="M23.1524 31.2771C22.6465 27.761 22.3935 26.003 23.1141 24.4999C23.8348 22.9968 25.3686 22.0831 28.4361 20.2557L28.4362 20.2557L30.2827 19.1558C33.0684 17.4963 34.4613 16.6666 36.0003 16.6666C37.5394 16.6666 38.9323 17.4963 41.7179 19.1558L43.5645 20.2557L43.5649 20.2559C46.6322 22.0832 48.166 22.9968 48.8865 24.4999C49.6071 26.003 49.3542 27.761 48.8482 31.2772L48.4766 33.8602L48.4765 33.8608C47.8266 38.3771 47.5016 40.6352 45.935 41.9842C44.3682 43.3333 42.0705 43.3333 37.4751 43.3333H34.5255C29.9301 43.3333 27.6324 43.3333 26.0657 41.9842C24.4989 40.6352 24.174 38.3769 23.5241 33.8602L23.1524 31.2772L23.1524 31.2771ZM34.1331 32C33.5316 32 33.0662 32.5272 33.1408 33.124L33.8908 39.124C33.9534 39.6244 34.3788 40 34.8831 40H37.1175C37.6219 40 38.0473 39.6244 38.1098 39.124L38.8598 33.124C38.9344 32.5272 38.469 32 37.8675 32H34.1331Z" fill="url(#paint0_linear_660_139)"/>
<path d="M74.5078 36H72.6406V30.8438H67.375V36H65.5V24.5781H67.375V29.25H72.6406V24.5781H74.5078V36ZM85 31.6562C85 32.375 84.9062 33.013 84.7188 33.5703C84.5312 34.1276 84.2578 34.599 83.8984 34.9844C83.5391 35.3646 83.1068 35.6562 82.6016 35.8594C82.0964 36.0573 81.526 36.1562 80.8906 36.1562C80.2969 36.1562 79.7526 36.0573 79.2578 35.8594C78.763 35.6562 78.3333 35.3646 77.9688 34.9844C77.6094 34.599 77.3307 34.1276 77.1328 33.5703C76.9349 33.013 76.8359 32.375 76.8359 31.6562C76.8359 30.7031 77 29.8958 77.3281 29.2344C77.6615 28.5677 78.1354 28.0599 78.75 27.7109C79.3646 27.362 80.0964 27.1875 80.9453 27.1875C81.7422 27.1875 82.4453 27.362 83.0547 27.7109C83.6641 28.0599 84.1406 28.5677 84.4844 29.2344C84.8281 29.901 85 30.7083 85 31.6562ZM78.7266 31.6562C78.7266 32.2865 78.8021 32.8255 78.9531 33.2734C79.1094 33.7214 79.349 34.0651 79.6719 34.3047C79.9948 34.5391 80.4115 34.6562 80.9219 34.6562C81.4323 34.6562 81.849 34.5391 82.1719 34.3047C82.4948 34.0651 82.7318 33.7214 82.8828 33.2734C83.0339 32.8255 83.1094 32.2865 83.1094 31.6562C83.1094 31.026 83.0339 30.4922 82.8828 30.0547C82.7318 29.612 82.4948 29.276 82.1719 29.0469C81.849 28.8125 81.4297 28.6953 80.9141 28.6953C80.1536 28.6953 79.599 28.9505 79.25 29.4609C78.901 29.9714 78.7266 30.7031 78.7266 31.6562ZM96.8828 27.1875C97.8516 27.1875 98.5807 27.4375 99.0703 27.9375C99.5651 28.4375 99.8125 29.2396 99.8125 30.3438V36H97.9766V30.6719C97.9766 30.0156 97.849 29.5208 97.5938 29.1875C97.3385 28.8542 96.9505 28.6875 96.4297 28.6875C95.7005 28.6875 95.1745 28.9219 94.8516 29.3906C94.5339 29.8542 94.375 30.5286 94.375 31.4141V36H92.5391V30.6719C92.5391 30.2344 92.4818 29.8698 92.3672 29.5781C92.2578 29.2812 92.0885 29.0599 91.8594 28.9141C91.6302 28.763 91.3411 28.6875 90.9922 28.6875C90.487 28.6875 90.0833 28.8021 89.7812 29.0312C89.4844 29.2604 89.2708 29.599 89.1406 30.0469C89.0104 30.4896 88.9453 31.0339 88.9453 31.6797V36H87.1094V27.3516H88.5391L88.7969 28.5156H88.8984C89.0755 28.2135 89.2943 27.9661 89.5547 27.7734C89.8203 27.5755 90.1146 27.4297 90.4375 27.3359C90.7604 27.237 91.0964 27.1875 91.4453 27.1875C92.0911 27.1875 92.6354 27.3021 93.0781 27.5312C93.5208 27.7552 93.8516 28.099 94.0703 28.5625H94.2109C94.4818 28.0938 94.8594 27.7474 95.3438 27.5234C95.8281 27.2995 96.3411 27.1875 96.8828 27.1875ZM105.82 27.1875C106.591 27.1875 107.253 27.3464 107.805 27.6641C108.357 27.9818 108.781 28.4323 109.078 29.0156C109.375 29.599 109.523 30.2969 109.523 31.1094V32.0938H103.75C103.771 32.9323 103.995 33.5781 104.422 34.0312C104.854 34.4844 105.458 34.7109 106.234 34.7109C106.786 34.7109 107.281 34.6589 107.719 34.5547C108.161 34.4453 108.617 34.2865 109.086 34.0781V35.5703C108.654 35.7734 108.214 35.9219 107.766 36.0156C107.318 36.1094 106.781 36.1562 106.156 36.1562C105.307 36.1562 104.56 35.9922 103.914 35.6641C103.273 35.3307 102.771 34.8359 102.406 34.1797C102.047 33.5234 101.867 32.7083 101.867 31.7344C101.867 30.7656 102.031 29.9427 102.359 29.2656C102.688 28.5885 103.148 28.0729 103.742 27.7188C104.336 27.3646 105.029 27.1875 105.82 27.1875ZM105.82 28.5703C105.242 28.5703 104.773 28.7578 104.414 29.1328C104.06 29.5078 103.852 30.0573 103.789 30.7812H107.727C107.721 30.349 107.648 29.9661 107.508 29.6328C107.372 29.2995 107.164 29.0391 106.883 28.8516C106.607 28.6641 106.253 28.5703 105.82 28.5703Z" fill="black"/>
<defs>
<linearGradient id="paint0_linear_660_139" x1="23.0003" y1="17" x2="49.0003" y2="43" gradientUnits="userSpaceOnUse">
<stop stop-color="#7979FC"/>
<stop offset="1" stop-color="#9B9BFF"/>
</linearGradient>
</defs>
</svg>
