<svg width="132" height="60" viewBox="0 0 132 60" fill="none" xmlns="http://www.w3.org/2000/svg">
<rect width="132" height="60" rx="10" fill="#EDEAFC"/>
<path d="M30 17.0667C30 16.4776 30.4776 16 31.0667 16H40.9333C41.5224 16 42 16.4776 42 17.0667V44H30V17.0667Z" fill="url(#paint0_linear_660_161)"/>
<path opacity="0.5" d="M21 31.0667C21 30.4776 21.4776 30 22.0667 30H28.9333C29.5224 30 30 30.4776 30 31.0667V44H21V31.0667Z" fill="url(#paint1_linear_660_161)"/>
<path opacity="0.5" d="M42 25.0667C42 24.4776 42.4776 24 43.0667 24H49.9333C50.5224 24 51 24.4776 51 25.0667V44H42V25.0667Z" fill="url(#paint2_linear_660_161)"/>
<path d="M65.5 24.5781H68.8984C70.3724 24.5781 71.4844 24.7917 72.2344 25.2188C72.9844 25.6458 73.3594 26.3828 73.3594 27.4297C73.3594 27.8672 73.2812 28.263 73.125 28.6172C72.974 28.9661 72.7526 29.2552 72.4609 29.4844C72.1693 29.7083 71.8099 29.8594 71.3828 29.9375V30.0156C71.8255 30.0938 72.2188 30.2318 72.5625 30.4297C72.9115 30.6276 73.1849 30.9115 73.3828 31.2812C73.5859 31.651 73.6875 32.1302 73.6875 32.7188C73.6875 33.4167 73.5208 34.0104 73.1875 34.5C72.8594 34.9896 72.388 35.362 71.7734 35.6172C71.1641 35.8724 70.4401 36 69.6016 36H65.5V24.5781ZM67.375 29.2891H69.1719C70.0208 29.2891 70.6094 29.151 70.9375 28.875C71.2656 28.599 71.4297 28.1953 71.4297 27.6641C71.4297 27.1224 71.2344 26.7318 70.8438 26.4922C70.4583 26.2526 69.8438 26.1328 69 26.1328H67.375V29.2891ZM67.375 30.8047V34.4297H69.3516C70.2266 34.4297 70.8411 34.2604 71.1953 33.9219C71.5495 33.5833 71.7266 33.125 71.7266 32.5469C71.7266 32.1927 71.6458 31.8854 71.4844 31.625C71.3281 31.3646 71.0703 31.1641 70.7109 31.0234C70.3516 30.8776 69.8672 30.8047 69.2578 30.8047H67.375ZM83.5156 31.6562C83.5156 32.375 83.4219 33.013 83.2344 33.5703C83.0469 34.1276 82.7734 34.599 82.4141 34.9844C82.0547 35.3646 81.6224 35.6562 81.1172 35.8594C80.612 36.0573 80.0417 36.1562 79.4062 36.1562C78.8125 36.1562 78.2682 36.0573 77.7734 35.8594C77.2786 35.6562 76.849 35.3646 76.4844 34.9844C76.125 34.599 75.8464 34.1276 75.6484 33.5703C75.4505 33.013 75.3516 32.375 75.3516 31.6562C75.3516 30.7031 75.5156 29.8958 75.8438 29.2344C76.1771 28.5677 76.651 28.0599 77.2656 27.7109C77.8802 27.362 78.612 27.1875 79.4609 27.1875C80.2578 27.1875 80.9609 27.362 81.5703 27.7109C82.1797 28.0599 82.6562 28.5677 83 29.2344C83.3438 29.901 83.5156 30.7083 83.5156 31.6562ZM77.2422 31.6562C77.2422 32.2865 77.3177 32.8255 77.4688 33.2734C77.625 33.7214 77.8646 34.0651 78.1875 34.3047C78.5104 34.5391 78.9271 34.6562 79.4375 34.6562C79.9479 34.6562 80.3646 34.5391 80.6875 34.3047C81.0104 34.0651 81.2474 33.7214 81.3984 33.2734C81.5495 32.8255 81.625 32.2865 81.625 31.6562C81.625 31.026 81.5495 30.4922 81.3984 30.0547C81.2474 29.612 81.0104 29.276 80.6875 29.0469C80.3646 28.8125 79.9453 28.6953 79.4297 28.6953C78.6693 28.6953 78.1146 28.9505 77.7656 29.4609C77.4167 29.9714 77.2422 30.7031 77.2422 31.6562ZM89.0156 27.1875C90.1094 27.1875 90.9349 27.4297 91.4922 27.9141C92.0547 28.3984 92.3359 29.1536 92.3359 30.1797V36H91.0312L90.6797 34.7734H90.6172C90.3724 35.0859 90.1198 35.3438 89.8594 35.5469C89.599 35.75 89.2969 35.901 88.9531 36C88.6146 36.1042 88.2005 36.1562 87.7109 36.1562C87.1953 36.1562 86.7344 36.0625 86.3281 35.875C85.9219 35.6823 85.6016 35.3906 85.3672 35C85.1328 34.6094 85.0156 34.1146 85.0156 33.5156C85.0156 32.625 85.3464 31.9557 86.0078 31.5078C86.6745 31.0599 87.6797 30.8125 89.0234 30.7656L90.5234 30.7109V30.2578C90.5234 29.6589 90.3828 29.2318 90.1016 28.9766C89.8255 28.7214 89.4349 28.5938 88.9297 28.5938C88.4974 28.5938 88.0781 28.6562 87.6719 28.7812C87.2656 28.9062 86.8698 29.0599 86.4844 29.2422L85.8906 27.9453C86.3125 27.7214 86.7917 27.5391 87.3281 27.3984C87.8698 27.2578 88.4323 27.1875 89.0156 27.1875ZM90.5156 31.8672L89.3984 31.9062C88.4818 31.9375 87.8385 32.0938 87.4688 32.375C87.099 32.6562 86.9141 33.0417 86.9141 33.5312C86.9141 33.9583 87.0417 34.2708 87.2969 34.4688C87.5521 34.6615 87.888 34.7578 88.3047 34.7578C88.9401 34.7578 89.4661 34.5781 89.8828 34.2188C90.3047 33.8542 90.5156 33.3203 90.5156 32.6172V31.8672ZM99.2891 27.1875C99.4349 27.1875 99.5938 27.1953 99.7656 27.2109C99.9375 27.2266 100.086 27.2474 100.211 27.2734L100.039 28.9922C99.9297 28.9609 99.7943 28.9375 99.6328 28.9219C99.4766 28.9062 99.3359 28.8984 99.2109 28.8984C98.8828 28.8984 98.5703 28.9531 98.2734 29.0625C97.9766 29.1667 97.7135 29.3281 97.4844 29.5469C97.2552 29.7604 97.0755 30.0286 96.9453 30.3516C96.8151 30.6745 96.75 31.0495 96.75 31.4766V36H94.9062V27.3516H96.3438L96.5938 28.875H96.6797C96.8516 28.5677 97.0651 28.2865 97.3203 28.0312C97.5755 27.776 97.8672 27.5729 98.1953 27.4219C98.5286 27.2656 98.8932 27.1875 99.2891 27.1875ZM104.719 36.1562C103.688 36.1562 102.859 35.7812 102.234 35.0312C101.615 34.276 101.305 33.1641 101.305 31.6953C101.305 30.2109 101.62 29.0885 102.25 28.3281C102.885 27.5677 103.721 27.1875 104.758 27.1875C105.195 27.1875 105.578 27.2474 105.906 27.3672C106.234 27.4818 106.516 27.638 106.75 27.8359C106.99 28.0339 107.193 28.2552 107.359 28.5H107.445C107.419 28.3385 107.388 28.1068 107.352 27.8047C107.32 27.4974 107.305 27.2135 107.305 26.9531V23.8438H109.148V36H107.711L107.383 34.8203H107.305C107.148 35.0703 106.951 35.2969 106.711 35.5C106.477 35.6979 106.195 35.8568 105.867 35.9766C105.544 36.0964 105.161 36.1562 104.719 36.1562ZM105.234 34.6641C106.021 34.6641 106.576 34.4375 106.898 33.9844C107.221 33.5312 107.388 32.8516 107.398 31.9453V31.7031C107.398 30.7344 107.242 29.9922 106.93 29.4766C106.617 28.9557 106.047 28.6953 105.219 28.6953C104.557 28.6953 104.052 28.9635 103.703 29.5C103.359 30.0312 103.188 30.7734 103.188 31.7266C103.188 32.6797 103.359 33.4089 103.703 33.9141C104.052 34.4141 104.562 34.6641 105.234 34.6641Z" fill="black"/>
<defs>
<linearGradient id="paint0_linear_660_161" x1="36" y1="16" x2="36" y2="44" gradientUnits="userSpaceOnUse">
<stop stop-color="#7979FC"/>
<stop offset="1" stop-color="#9B9BFF"/>
</linearGradient>
<linearGradient id="paint1_linear_660_161" x1="25.5" y1="30" x2="25.5" y2="44" gradientUnits="userSpaceOnUse">
<stop stop-color="#7979FC"/>
<stop offset="1" stop-color="#9B9BFF"/>
</linearGradient>
<linearGradient id="paint2_linear_660_161" x1="46.5" y1="24" x2="46.5" y2="44" gradientUnits="userSpaceOnUse">
<stop stop-color="#7979FC"/>
<stop offset="1" stop-color="#9B9BFF"/>
</linearGradient>
</defs>
</svg>
