<svg width="132" height="60" viewBox="0 0 132 60" fill="none" xmlns="http://www.w3.org/2000/svg">
<rect width="132" height="60" rx="10" fill="#EDEAFC"/>
<g clip-path="url(#clip0_660_231)">
<path fill-rule="evenodd" clip-rule="evenodd" d="M38.6556 20.6667C38.6556 18.0893 40.7882 16 43.4187 16C46.0493 16 48.1818 18.0893 48.1818 20.6667C48.1818 23.244 46.0493 25.3333 43.4187 25.3333C42.0904 25.3333 40.89 24.8003 40.027 23.9429L33.4333 28.3613C33.4942 28.6595 33.5262 28.9675 33.5262 29.2821C33.5262 29.9051 33.401 30.5006 33.1743 31.045L40.4042 35.7201C41.2249 35.0625 42.2748 34.6666 43.4187 34.6666C46.0493 34.6666 48.1818 36.756 48.1818 39.3334C48.1818 41.9106 46.0493 44 43.4187 44C40.7882 44 38.6556 41.9106 38.6556 39.3334C38.6556 38.6583 38.8024 38.0157 39.0663 37.4355L31.8948 32.7982C31.0582 33.5137 29.9624 33.9487 28.7631 33.9487C26.1325 33.9487 24 31.8593 24 29.2821C24 26.7047 26.1325 24.6154 28.7631 24.6154C30.2758 24.6154 31.6223 25.3062 32.4941 26.3813L38.8845 22.099C38.7358 21.647 38.6556 21.1654 38.6556 20.6667Z" fill="url(#paint0_linear_660_231)"/>
</g>
<path d="M72.0938 32.8906C72.0938 33.5677 71.9271 34.151 71.5938 34.6406C71.2656 35.1302 70.7917 35.5052 70.1719 35.7656C69.5573 36.026 68.8229 36.1562 67.9688 36.1562C67.5521 36.1562 67.1536 36.1328 66.7734 36.0859C66.3932 36.0391 66.0339 35.9714 65.6953 35.8828C65.362 35.7891 65.0573 35.6771 64.7812 35.5469V33.7812C65.2448 33.9844 65.763 34.1693 66.3359 34.3359C66.9089 34.4974 67.4922 34.5781 68.0859 34.5781C68.5703 34.5781 68.9714 34.5156 69.2891 34.3906C69.612 34.2604 69.8516 34.0781 70.0078 33.8438C70.1641 33.6042 70.2422 33.3255 70.2422 33.0078C70.2422 32.6693 70.151 32.3828 69.9688 32.1484C69.7865 31.9141 69.5104 31.7005 69.1406 31.5078C68.776 31.3099 68.3177 31.099 67.7656 30.875C67.3906 30.724 67.0312 30.5521 66.6875 30.3594C66.349 30.1667 66.0469 29.9401 65.7812 29.6797C65.5156 29.4193 65.3047 29.112 65.1484 28.7578C64.9974 28.3984 64.9219 27.9766 64.9219 27.4922C64.9219 26.8464 65.0755 26.2943 65.3828 25.8359C65.6953 25.3776 66.1328 25.026 66.6953 24.7812C67.263 24.5365 67.9245 24.4141 68.6797 24.4141C69.2786 24.4141 69.8411 24.4766 70.3672 24.6016C70.8984 24.7266 71.4193 24.9036 71.9297 25.1328L71.3359 26.6406C70.8672 26.4479 70.4115 26.2943 69.9688 26.1797C69.5312 26.0651 69.0833 26.0078 68.625 26.0078C68.2292 26.0078 67.8932 26.0677 67.6172 26.1875C67.3411 26.3073 67.1302 26.4766 66.9844 26.6953C66.8438 26.9089 66.7734 27.1641 66.7734 27.4609C66.7734 27.7943 66.8542 28.0755 67.0156 28.3047C67.1823 28.5286 67.4375 28.7344 67.7812 28.9219C68.1302 29.1094 68.5781 29.3177 69.125 29.5469C69.7552 29.8073 70.2891 30.0807 70.7266 30.3672C71.1693 30.6536 71.5078 30.9974 71.7422 31.3984C71.9766 31.7943 72.0938 32.2917 72.0938 32.8906ZM75.9453 23.8438V26.8984C75.9453 27.2161 75.9349 27.526 75.9141 27.8281C75.8984 28.1302 75.8802 28.3646 75.8594 28.5312H75.9609C76.1432 28.2292 76.3672 27.9818 76.6328 27.7891C76.8984 27.5911 77.1953 27.4427 77.5234 27.3438C77.8568 27.2448 78.2109 27.1953 78.5859 27.1953C79.2474 27.1953 79.8099 27.3073 80.2734 27.5312C80.737 27.75 81.0911 28.0911 81.3359 28.5547C81.5859 29.0182 81.7109 29.6198 81.7109 30.3594V36H79.875V30.7031C79.875 30.0312 79.737 29.5286 79.4609 29.1953C79.1849 28.8568 78.7578 28.6875 78.1797 28.6875C77.6224 28.6875 77.1797 28.8047 76.8516 29.0391C76.5286 29.2682 76.2969 29.6094 76.1562 30.0625C76.0156 30.5104 75.9453 31.0573 75.9453 31.7031V36H74.1094V23.8438H75.9453ZM87.6719 27.1875C88.7656 27.1875 89.5911 27.4297 90.1484 27.9141C90.7109 28.3984 90.9922 29.1536 90.9922 30.1797V36H89.6875L89.3359 34.7734H89.2734C89.0286 35.0859 88.776 35.3438 88.5156 35.5469C88.2552 35.75 87.9531 35.901 87.6094 36C87.2708 36.1042 86.8568 36.1562 86.3672 36.1562C85.8516 36.1562 85.3906 36.0625 84.9844 35.875C84.5781 35.6823 84.2578 35.3906 84.0234 35C83.7891 34.6094 83.6719 34.1146 83.6719 33.5156C83.6719 32.625 84.0026 31.9557 84.6641 31.5078C85.3307 31.0599 86.3359 30.8125 87.6797 30.7656L89.1797 30.7109V30.2578C89.1797 29.6589 89.0391 29.2318 88.7578 28.9766C88.4818 28.7214 88.0911 28.5938 87.5859 28.5938C87.1536 28.5938 86.7344 28.6562 86.3281 28.7812C85.9219 28.9062 85.526 29.0599 85.1406 29.2422L84.5469 27.9453C84.9688 27.7214 85.4479 27.5391 85.9844 27.3984C86.526 27.2578 87.0885 27.1875 87.6719 27.1875ZM89.1719 31.8672L88.0547 31.9062C87.138 31.9375 86.4948 32.0938 86.125 32.375C85.7552 32.6562 85.5703 33.0417 85.5703 33.5312C85.5703 33.9583 85.6979 34.2708 85.9531 34.4688C86.2083 34.6615 86.5443 34.7578 86.9609 34.7578C87.5964 34.7578 88.1224 34.5781 88.5391 34.2188C88.9609 33.8542 89.1719 33.3203 89.1719 32.6172V31.8672ZM97.9453 27.1875C98.0911 27.1875 98.25 27.1953 98.4219 27.2109C98.5938 27.2266 98.7422 27.2474 98.8672 27.2734L98.6953 28.9922C98.5859 28.9609 98.4505 28.9375 98.2891 28.9219C98.1328 28.9062 97.9922 28.8984 97.8672 28.8984C97.5391 28.8984 97.2266 28.9531 96.9297 29.0625C96.6328 29.1667 96.3698 29.3281 96.1406 29.5469C95.9115 29.7604 95.7318 30.0286 95.6016 30.3516C95.4714 30.6745 95.4062 31.0495 95.4062 31.4766V36H93.5625V27.3516H95L95.25 28.875H95.3359C95.5078 28.5677 95.7214 28.2865 95.9766 28.0312C96.2318 27.776 96.5234 27.5729 96.8516 27.4219C97.1849 27.2656 97.5495 27.1875 97.9453 27.1875ZM103.914 27.1875C104.685 27.1875 105.346 27.3464 105.898 27.6641C106.451 27.9818 106.875 28.4323 107.172 29.0156C107.469 29.599 107.617 30.2969 107.617 31.1094V32.0938H101.844C101.865 32.9323 102.089 33.5781 102.516 34.0312C102.948 34.4844 103.552 34.7109 104.328 34.7109C104.88 34.7109 105.375 34.6589 105.812 34.5547C106.255 34.4453 106.711 34.2865 107.18 34.0781V35.5703C106.747 35.7734 106.307 35.9219 105.859 36.0156C105.411 36.1094 104.875 36.1562 104.25 36.1562C103.401 36.1562 102.654 35.9922 102.008 35.6641C101.367 35.3307 100.865 34.8359 100.5 34.1797C100.141 33.5234 99.9609 32.7083 99.9609 31.7344C99.9609 30.7656 100.125 29.9427 100.453 29.2656C100.781 28.5885 101.242 28.0729 101.836 27.7188C102.43 27.3646 103.122 27.1875 103.914 27.1875ZM103.914 28.5703C103.336 28.5703 102.867 28.7578 102.508 29.1328C102.154 29.5078 101.945 30.0573 101.883 30.7812H105.82C105.815 30.349 105.742 29.9661 105.602 29.6328C105.466 29.2995 105.258 29.0391 104.977 28.8516C104.701 28.6641 104.346 28.5703 103.914 28.5703Z" fill="black"/>
<defs>
<linearGradient id="paint0_linear_660_231" x1="24.3023" y1="16.35" x2="51.3115" y2="39.6762" gradientUnits="userSpaceOnUse">
<stop stop-color="#7979FC"/>
<stop offset="1" stop-color="#9B9BFF"/>
</linearGradient>
<clipPath id="clip0_660_231">
<rect width="32" height="32" fill="white" transform="translate(20 14)"/>
</clipPath>
</defs>
</svg>
