<svg width="40" height="40" viewBox="0 0 40 40" fill="none" xmlns="http://www.w3.org/2000/svg">
<path d="M28.5714 5H11.4286C7.87817 5 5 7.87817 5 11.4286V28.5714C5 32.1218 7.87817 35 11.4286 35H28.5714C32.1218 35 35 32.1218 35 28.5714V11.4286C35 7.87817 32.1218 5 28.5714 5Z" fill="url(#paint0_radial_728_389)"/>
<path d="M28.5714 5H11.4286C7.87817 5 5 7.87817 5 11.4286V28.5714C5 32.1218 7.87817 35 11.4286 35H28.5714C32.1218 35 35 32.1218 35 28.5714V11.4286C35 7.87817 32.1218 5 28.5714 5Z" fill="url(#paint1_radial_728_389)"/>
<path d="M28.5714 5H11.4286C7.87817 5 5 7.87817 5 11.4286V28.5714C5 32.1218 7.87817 35 11.4286 35H28.5714C32.1218 35 35 32.1218 35 28.5714V11.4286C35 7.87817 32.1218 5 28.5714 5Z" fill="url(#paint2_radial_728_389)"/>
<path d="M27.4999 14.1067C27.4999 14.9942 26.7804 15.7138 25.8928 15.7138C25.0052 15.7138 24.2856 14.9942 24.2856 14.1067C24.2856 13.2191 25.0052 12.4995 25.8928 12.4995C26.7804 12.4995 27.4999 13.2191 27.4999 14.1067Z" fill="white"/>
<path fill-rule="evenodd" clip-rule="evenodd" d="M20.0002 25.3574C22.9589 25.3574 25.3574 22.9589 25.3574 20.0002C25.3574 17.0416 22.9589 14.6431 20.0002 14.6431C17.0416 14.6431 14.6431 17.0416 14.6431 20.0002C14.6431 22.9589 17.0416 25.3574 20.0002 25.3574ZM20.0002 23.2145C21.7755 23.2145 23.2145 21.7755 23.2145 20.0002C23.2145 18.225 21.7755 16.7859 20.0002 16.7859C18.225 16.7859 16.7859 18.225 16.7859 20.0002C16.7859 21.7755 18.225 23.2145 20.0002 23.2145Z" fill="white"/>
<path fill-rule="evenodd" clip-rule="evenodd" d="M9.28564 19.5714C9.28564 15.971 9.28564 14.1708 9.98632 12.7957C10.6026 11.5861 11.5861 10.6026 12.7957 9.98632C14.1708 9.28564 15.971 9.28564 19.5714 9.28564H20.4285C24.0288 9.28564 25.829 9.28564 27.2041 9.98632C28.4138 10.6026 29.3972 11.5861 30.0135 12.7957C30.7142 14.1708 30.7142 15.971 30.7142 19.5714V20.4285C30.7142 24.0288 30.7142 25.829 30.0135 27.2041C29.3972 28.4138 28.4138 29.3972 27.2041 30.0135C25.829 30.7142 24.0288 30.7142 20.4285 30.7142H19.5714C15.971 30.7142 14.1708 30.7142 12.7957 30.0135C11.5861 29.3972 10.6026 28.4138 9.98632 27.2041C9.28564 25.829 9.28564 24.0288 9.28564 20.4285V19.5714ZM19.5714 11.4285H20.4285C22.2641 11.4285 23.5118 11.4302 24.4763 11.509C25.4158 11.5857 25.8962 11.7248 26.2314 11.8956C27.0377 12.3065 27.6933 12.9621 28.1042 13.7685C28.275 14.1036 28.4142 14.5841 28.4909 15.5236C28.5696 16.4881 28.5714 17.7358 28.5714 19.5714V20.4285C28.5714 22.2641 28.5696 23.5118 28.4909 24.4763C28.4142 25.4158 28.275 25.8962 28.1042 26.2314C27.6933 27.0377 27.0377 27.6933 26.2314 28.1042C25.8962 28.275 25.4158 28.4142 24.4763 28.4909C23.5118 28.5696 22.2641 28.5714 20.4285 28.5714H19.5714C17.7358 28.5714 16.4881 28.5696 15.5236 28.4909C14.5841 28.4142 14.1036 28.275 13.7685 28.1042C12.9621 27.6933 12.3065 27.0377 11.8956 26.2314C11.7248 25.8962 11.5857 25.4158 11.509 24.4763C11.4302 23.5118 11.4285 22.2641 11.4285 20.4285V19.5714C11.4285 17.7358 11.4302 16.4881 11.509 15.5236C11.5857 14.5841 11.7248 14.1036 11.8956 13.7685C12.3065 12.9621 12.9621 12.3065 13.7685 11.8956C14.1036 11.7248 14.5841 11.5857 15.5236 11.509C16.4881 11.4302 17.7358 11.4285 19.5714 11.4285Z" fill="white"/>
<defs>
<radialGradient id="paint0_radial_728_389" cx="0" cy="0" r="1" gradientUnits="userSpaceOnUse" gradientTransform="translate(15.7143 27.5) rotate(-55.3758) scale(27.3424)">
<stop stop-color="#B13589"/>
<stop offset="0.79309" stop-color="#C62F94"/>
<stop offset="1" stop-color="#8A3AC8"/>
</radialGradient>
<radialGradient id="paint1_radial_728_389" cx="0" cy="0" r="1" gradientUnits="userSpaceOnUse" gradientTransform="translate(14.6429 36.0714) rotate(-65.1363) scale(24.2081)">
<stop stop-color="#E0E8B7"/>
<stop offset="0.444662" stop-color="#FB8A2E"/>
<stop offset="0.71474" stop-color="#E2425C"/>
<stop offset="1" stop-color="#E2425C" stop-opacity="0"/>
</radialGradient>
<radialGradient id="paint2_radial_728_389" cx="0" cy="0" r="1" gradientUnits="userSpaceOnUse" gradientTransform="translate(3.39286 6.07143) rotate(-8.1301) scale(41.6688 8.91253)">
<stop offset="0.156701" stop-color="#406ADC"/>
<stop offset="0.467799" stop-color="#6A45BE"/>
<stop offset="1" stop-color="#6A45BE" stop-opacity="0"/>
</radialGradient>
</defs>
</svg>
