<svg width="13" height="14" viewBox="0 0 13 14" fill="none" xmlns="http://www.w3.org/2000/svg">
<path d="M7.28261 3.34783V1.52174C7.28261 1.38337 7.22764 1.25066 7.12979 1.15281C7.03195 1.05497 6.89924 1 6.76087 1H1.02174C0.883365 1 0.750659 1.05497 0.652814 1.15281C0.554969 1.25066 0.5 1.38337 0.5 1.52174V12.4783C0.5 12.6166 0.554969 12.7493 0.652814 12.8472C0.750659 12.945 0.883365 13 1.02174 13H6.76087C6.89924 13 7.03195 12.945 7.12979 12.8472C7.22764 12.7493 7.28261 12.6166 7.28261 12.4783V10.6522" stroke="white" stroke-linecap="round" stroke-linejoin="round"/>
<path d="M12.5 7H2.58694" stroke="white" stroke-linecap="round" stroke-linejoin="round"/>
<path d="M9.8913 9.60875L12.5 7.00005L9.8913 4.39136" stroke="white" stroke-linecap="round" stroke-linejoin="round"/>
</svg>
