<svg width="30" height="28" viewBox="0 0 30 28" fill="none" xmlns="http://www.w3.org/2000/svg">
<path fill-rule="evenodd" clip-rule="evenodd" d="M20.3007 14C20.3007 13.4201 19.8306 12.95 19.2507 12.95H3.88855L6.63355 10.5972C7.07387 10.2199 7.12486 9.55698 6.74745 9.11669C6.37005 8.67639 5.70716 8.62541 5.26686 9.0028L0.366687 13.2029C0.133943 13.4022 0 13.6936 0 14C0 14.3065 0.133943 14.5978 0.366687 14.7972L5.26686 18.9972C5.70716 19.3746 6.37005 19.3237 6.74745 18.8834C7.12486 18.4431 7.07387 17.7802 6.63355 17.4029L3.88855 15.05H19.2507C19.8306 15.05 20.3007 14.5799 20.3007 14Z" fill="url(#paint0_linear_726_173)"/>
<path d="M10.8496 8.4C10.8496 9.38307 10.8496 9.87461 11.0855 10.2277C11.1877 10.3806 11.319 10.5119 11.4719 10.614C11.825 10.8499 12.3166 10.8499 13.2997 10.8499H19.2499C20.9896 10.8499 22.4 12.2602 22.4 14C22.4 15.7396 20.9896 17.15 19.2499 17.15H13.2997C12.3166 17.15 11.8249 17.15 11.4718 17.3859C11.3189 17.4881 11.1877 17.6193 11.0856 17.7722C10.8496 18.1252 10.8496 18.6168 10.8496 19.6C10.8496 23.5598 10.8496 25.5396 12.0798 26.7698C13.3101 28 15.2897 28 19.2496 28H20.6497C24.6096 28 26.5895 28 27.8197 26.7698C29.05 25.5396 29.05 23.5598 29.05 19.6V8.4C29.05 4.44021 29.05 2.4603 27.8197 1.23015C26.5895 0 24.6096 0 20.6497 0H19.2496C15.2897 0 13.3101 0 12.0798 1.23015C10.8496 2.4603 10.8496 4.4402 10.8496 8.4Z" fill="url(#paint1_linear_726_173)"/>
<defs>
<linearGradient id="paint0_linear_726_173" x1="-0.00571025" y1="8.75" x2="13.9942" y2="26.8206" gradientUnits="userSpaceOnUse">
<stop stop-color="#7979FC"/>
<stop offset="1" stop-color="#9B9BFF"/>
</linearGradient>
<linearGradient id="paint1_linear_726_173" x1="10.8445" y1="-1.92377e-06" x2="39.0045" y2="12.2203" gradientUnits="userSpaceOnUse">
<stop stop-color="#7979FC"/>
<stop offset="1" stop-color="#9B9BFF"/>
</linearGradient>
</defs>
</svg>
