<svg width="22" height="30" viewBox="0 0 22 30" fill="none" xmlns="http://www.w3.org/2000/svg">
<path d="M16.36 0H5.64C1.5 0 0 1.5 0 5.715V24.285C0 28.5 1.5 30 5.64 30H16.345C20.5 30 22 28.5 22 24.285V5.715C22 1.5 20.5 0 16.36 0ZM11 25.95C9.56 25.95 8.375 24.765 8.375 23.325C8.375 21.885 9.56 20.7 11 20.7C12.44 20.7 13.625 21.885 13.625 23.325C13.625 24.765 12.44 25.95 11 25.95ZM14 6.375H8C7.385 6.375 6.875 5.865 6.875 5.25C6.875 4.635 7.385 4.125 8 4.125H14C14.615 4.125 15.125 4.635 15.125 5.25C15.125 5.865 14.615 6.375 14 6.375Z" fill="url(#paint0_linear_728_351)"/>
<defs>
<linearGradient id="paint0_linear_728_351" x1="-1.00675" y1="-1.57977e-06" x2="33.3259" y2="18.3368" gradientUnits="userSpaceOnUse">
<stop stop-color="#7979FC"/>
<stop offset="1" stop-color="#9B9BFF"/>
</linearGradient>
</defs>
</svg>
