<svg width="22" height="17" viewBox="0 0 22 17" fill="none" xmlns="http://www.w3.org/2000/svg">
<path fill-rule="evenodd" clip-rule="evenodd" d="M11.1225 0.000106113C15.828 0.0668566 19.6753 4.23588 21.7548 7.92288C21.9125 8.20258 21.9165 8.54116 21.7664 8.82499C21.5161 9.29798 21.0978 10.0504 20.6773 10.6377C20.3559 11.0865 20.0178 11.5237 19.6626 11.9465C19.4093 12.2475 19.1476 12.5407 18.8762 12.8255C16.4508 15.3727 12.9676 17.273 9.28943 16.5352C5.3545 15.7458 2.24159 12.3976 0.227386 8.78797C0.0808233 8.52532 0.0671673 8.21002 0.194588 7.93757C0.419245 7.45721 0.813725 6.67102 1.24582 6.07172C1.545 5.6563 1.859 5.25199 2.18782 4.85972C2.43976 4.55915 2.70097 4.26598 2.97097 3.98116C5.11387 1.72294 7.86346 -0.0156403 11.1225 0.000106113ZM11.1054 1.85262C8.37754 1.84243 6.10913 3.36566 4.31451 5.25662C4.07044 5.51365 3.83517 5.77856 3.60731 6.04996C3.30766 6.40749 3.02145 6.77661 2.74867 7.15498C2.59843 7.36349 2.45331 7.62057 2.32192 7.87125C2.16499 8.17067 2.17786 8.53146 2.35564 8.819C4.09141 11.6263 6.54758 14.0958 9.65392 14.7188C12.6934 15.3287 15.5301 13.6531 17.5345 11.5482C17.7795 11.2912 18.0162 11.0258 18.245 10.754C18.5691 10.3682 18.8776 9.96942 19.1707 9.55955C19.3209 9.34977 19.4758 9.10688 19.6196 8.86741C19.8025 8.5629 19.7968 8.18222 19.6072 7.88187C17.7509 4.9415 14.7698 1.90966 11.1054 1.85262Z" fill="#575757"/>
<path fill-rule="evenodd" clip-rule="evenodd" d="M10.958 4.64158C13.0074 4.64158 14.6714 6.3056 14.6714 8.35449C14.6714 10.4038 13.0074 12.0674 10.958 12.0674C8.90914 12.0674 7.24512 10.4038 7.24512 8.35449C7.24512 6.3056 8.90914 4.64158 10.958 4.64158ZM10.958 6.49827C11.9829 6.49827 12.8147 7.33004 12.8147 8.35449C12.8147 9.37939 11.9829 10.2112 10.958 10.2112C9.93358 10.2112 9.1018 9.37939 9.1018 8.35449C9.1018 7.33004 9.93358 6.49827 10.958 6.49827Z" fill="#575757"/>
</svg>
