<svg width="40" height="40" viewBox="0 0 40 40" fill="none" xmlns="http://www.w3.org/2000/svg">
<path fill-rule="evenodd" clip-rule="evenodd" d="M10.55 17.3264V14.45C10.55 9.23091 14.7809 5 20 5C25.2191 5 29.45 9.23091 29.45 14.45V17.3264C31.0107 17.4431 32.027 17.7372 32.7698 18.4802C34 19.7104 34 21.6902 34 25.65C34 29.6098 34 31.5896 32.7698 32.8198C31.5396 34.05 29.5598 34.05 25.6 34.05H14.4C10.4402 34.05 8.4603 34.05 7.23015 32.8198C6 31.5896 6 29.6098 6 25.65C6 21.6902 6 19.7104 7.23015 18.4802C7.97303 17.7372 8.98935 17.4431 10.55 17.3264ZM12.65 14.45C12.65 10.3907 15.9407 7.1 20 7.1C24.0593 7.1 27.35 10.3907 27.35 14.45V17.255C26.8138 17.25 26.2321 17.25 25.6 17.25H14.4C13.7679 17.25 13.1862 17.25 12.65 17.255V14.45ZM14.4 27.05C15.1732 27.05 15.8 26.4232 15.8 25.65C15.8 24.8768 15.1732 24.25 14.4 24.25C13.6268 24.25 13 24.8768 13 25.65C13 26.4232 13.6268 27.05 14.4 27.05ZM20 27.05C20.7732 27.05 21.4 26.4232 21.4 25.65C21.4 24.8768 20.7732 24.25 20 24.25C19.2268 24.25 18.6 24.8768 18.6 25.65C18.6 26.4232 19.2268 27.05 20 27.05ZM27 25.65C27 26.4232 26.3732 27.05 25.6 27.05C24.8268 27.05 24.2 26.4232 24.2 25.65C24.2 24.8768 24.8268 24.25 25.6 24.25C26.3732 24.25 27 24.8768 27 25.65Z" fill="url(#paint0_linear_726_103)"/>
<defs>
<linearGradient id="paint0_linear_726_103" x1="5.99212" y1="5" x2="42.3981" y2="28.4267" gradientUnits="userSpaceOnUse">
<stop stop-color="#7979FC"/>
<stop offset="1" stop-color="#9B9BFF"/>
</linearGradient>
</defs>
</svg>
