<svg width="40" height="40" viewBox="0 0 40 40" fill="none" xmlns="http://www.w3.org/2000/svg">
<path d="M10.2919 9.04502C11.0519 7.68168 11.4319 7 12 7C12.5681 7 12.9481 7.68168 13.7081 9.04502L13.9048 9.39774C14.1207 9.78516 14.2287 9.97887 14.397 10.1067C14.5654 10.2345 14.7751 10.2819 15.1945 10.3768L15.5763 10.4632C17.0521 10.7971 17.79 10.9641 17.9655 11.5287C18.1411 12.0931 17.638 12.6814 16.6319 13.8579L16.3717 14.1623C16.0857 14.4967 15.9428 14.6638 15.8785 14.8707C15.8142 15.0774 15.8358 15.3005 15.879 15.7465L15.9184 16.1526C16.0705 17.7223 16.1465 18.5072 15.6869 18.8561C15.2273 19.205 14.5364 18.8869 13.1546 18.2507L12.7971 18.0861C12.4045 17.9053 12.2081 17.8149 12 17.8149C11.7919 17.8149 11.5955 17.9053 11.2029 18.0861L10.8454 18.2507C9.4636 18.8869 8.7727 19.205 8.31309 18.8561C7.85347 18.5072 7.92953 17.7223 8.08164 16.1526L8.12099 15.7465C8.16421 15.3005 8.18583 15.0774 8.12151 14.8707C8.05721 14.6638 7.91425 14.4967 7.62835 14.1623L7.36806 13.8579C6.36195 12.6814 5.85889 12.0931 6.03445 11.5287C6.21001 10.9641 6.94791 10.7971 8.42372 10.4632L8.80553 10.3768C9.22491 10.2819 9.4346 10.2345 9.60296 10.1067C9.77133 9.97887 9.87932 9.78516 10.0953 9.39774L10.2919 9.04502Z" fill="url(#paint0_linear_726_94)"/>
<path d="M18.2919 23.045C19.0519 21.6817 19.4319 21 20 21C20.5681 21 20.9481 21.6817 21.7081 23.045L21.9048 23.3977C22.1207 23.7852 22.2287 23.9789 22.397 24.1067C22.5654 24.2345 22.7751 24.2819 23.1945 24.3768L23.5763 24.4632C25.0521 24.7971 25.79 24.9641 25.9655 25.5287C26.1411 26.0931 25.638 26.6814 24.6319 27.8579L24.3717 28.1623C24.0857 28.4967 23.9428 28.6638 23.8785 28.8707C23.8142 29.0774 23.8358 29.3005 23.879 29.7465L23.9184 30.1526C24.0705 31.7223 24.1465 32.5072 23.6869 32.8561C23.2273 33.205 22.5364 32.8869 21.1546 32.2507L20.7971 32.0861C20.4045 31.9053 20.2081 31.8149 20 31.8149C19.7919 31.8149 19.5955 31.9053 19.2029 32.0861L18.8454 32.2507C17.4636 32.8869 16.7727 33.205 16.3131 32.8561C15.8535 32.5072 15.9295 31.7223 16.0816 30.1526L16.121 29.7465C16.1642 29.3005 16.1858 29.0774 16.1215 28.8707C16.0572 28.6638 15.9143 28.4967 15.6283 28.1623L15.3681 27.8579C14.3619 26.6814 13.8589 26.0931 14.0345 25.5287C14.21 24.9641 14.9479 24.7971 16.4237 24.4632L16.8055 24.3768C17.2249 24.2819 17.4346 24.2345 17.603 24.1067C17.7713 23.9789 17.8793 23.7852 18.0953 23.3977L18.2919 23.045Z" fill="url(#paint1_linear_726_94)"/>
<path d="M26.2919 9.04502C27.0519 7.68168 27.4319 7 28 7C28.5681 7 28.9481 7.68168 29.7081 9.04502L29.9048 9.39774C30.1207 9.78516 30.2287 9.97887 30.397 10.1067C30.5654 10.2345 30.7751 10.2819 31.1945 10.3768L31.5763 10.4632C33.0521 10.7972 33.79 10.9641 33.9656 11.5287C34.1411 12.0931 33.638 12.6814 32.6319 13.8579L32.3717 14.1623C32.0857 14.4967 31.9428 14.6638 31.8785 14.8707C31.8142 15.0774 31.8358 15.3005 31.879 15.7465L31.9184 16.1526C32.0705 17.7223 32.1465 18.5072 31.6869 18.8561C31.2273 19.205 30.5364 18.8869 29.1546 18.2507L28.7971 18.0861C28.4045 17.9053 28.2081 17.8149 28 17.8149C27.7919 17.8149 27.5955 17.9053 27.2029 18.0861L26.8454 18.2507C25.4636 18.8869 24.7727 19.205 24.3131 18.8561C23.8535 18.5072 23.9295 17.7223 24.0816 16.1526L24.121 15.7465C24.1642 15.3005 24.1858 15.0774 24.1215 14.8707C24.0572 14.6638 23.9143 14.4967 23.6283 14.1623L23.3681 13.8579C22.3619 12.6814 21.8589 12.0931 22.0345 11.5287C22.21 10.9641 22.9479 10.7972 24.4237 10.4632L24.8055 10.3768C25.2249 10.2819 25.4346 10.2345 25.603 10.1067C25.7713 9.97887 25.8793 9.78516 26.0953 9.39774L26.2919 9.04502Z" fill="url(#paint2_linear_726_94)"/>
<defs>
<linearGradient id="paint0_linear_726_94" x1="5.99662" y1="7" x2="21.2577" y2="17.1886" gradientUnits="userSpaceOnUse">
<stop stop-color="#7979FC"/>
<stop offset="1" stop-color="#9B9BFF"/>
</linearGradient>
<linearGradient id="paint1_linear_726_94" x1="13.9966" y1="21" x2="29.2577" y2="31.1886" gradientUnits="userSpaceOnUse">
<stop stop-color="#7979FC"/>
<stop offset="1" stop-color="#9B9BFF"/>
</linearGradient>
<linearGradient id="paint2_linear_726_94" x1="21.9966" y1="7" x2="37.2577" y2="17.1886" gradientUnits="userSpaceOnUse">
<stop stop-color="#7979FC"/>
<stop offset="1" stop-color="#9B9BFF"/>
</linearGradient>
</defs>
</svg>
