<svg width="11" height="8" viewBox="0 0 11 8" fill="none" xmlns="http://www.w3.org/2000/svg">
<path d="M3.80165 7.99996C3.79383 7.99996 3.78601 7.99996 3.77819 7.99996C3.53581 7.99156 3.31298 7.85723 3.18397 7.63893C2.37082 6.2662 0.943895 4.99001 0.932167 4.97742C0.619417 4.70035 0.576414 4.20499 0.834433 3.86915C1.09245 3.53331 1.55376 3.48714 1.86651 3.7642C1.92124 3.81038 2.95331 4.73393 3.84074 5.92616C4.74381 4.83469 6.61249 2.80706 9.53279 0.792036C9.87682 0.556949 10.3303 0.661898 10.5492 1.02712C10.7682 1.39235 10.6704 1.88351 10.3303 2.1186C6.3662 4.85568 4.41151 7.65153 4.39196 7.68091C4.25514 7.88242 4.03621 7.99996 3.80165 7.99996Z" fill="white"/>
</svg>
