<svg width="32" height="32" viewBox="0 0 32 32" fill="none" xmlns="http://www.w3.org/2000/svg">
<path fill-rule="evenodd" clip-rule="evenodd" d="M18.6556 6.66666C18.6556 4.08933 20.7882 2 23.4187 2C26.0493 2 28.1818 4.08933 28.1818 6.66666C28.1818 9.24399 26.0493 11.3333 23.4187 11.3333C22.0904 11.3333 20.89 10.8003 20.027 9.94286L13.4333 14.3613C13.4942 14.6595 13.5262 14.9675 13.5262 15.2821C13.5262 15.9051 13.401 16.5006 13.1743 17.045L20.4042 21.7201C21.2249 21.0625 22.2748 20.6666 23.4187 20.6666C26.0493 20.6666 28.1818 22.756 28.1818 25.3334C28.1818 27.9106 26.0493 30 23.4187 30C20.7882 30 18.6556 27.9106 18.6556 25.3334C18.6556 24.6583 18.8024 24.0157 19.0663 23.4355L11.8948 18.7982C11.0582 19.5137 9.96238 19.9487 8.76308 19.9487C6.13251 19.9487 4 17.8593 4 15.2821C4 12.7047 6.13251 10.6154 8.76308 10.6154C10.2758 10.6154 11.6223 11.3062 12.4941 12.3813L18.8845 8.09899C18.7358 7.64703 18.6556 7.16544 18.6556 6.66666Z" fill="url(#paint0_linear_660_238)"/>
<defs>
<linearGradient id="paint0_linear_660_238" x1="4.30227" y1="2.35001" x2="31.3115" y2="25.6762" gradientUnits="userSpaceOnUse">
<stop stop-color="#7979FC"/>
<stop offset="1" stop-color="#9B9BFF"/>
</linearGradient>
</defs>
</svg>
