<svg width="26" height="28" viewBox="0 0 26 28" fill="none" xmlns="http://www.w3.org/2000/svg">
<path fill-rule="evenodd" clip-rule="evenodd" d="M15.3601 1.23992L22.2535 5.22659C25.0668 7.11992 25.2268 7.39992 25.2268 10.3733V17.6265C25.2268 20.5999 25.0668 20.8799 22.3068 22.7465L15.3468 26.7599C14.6935 27.1465 13.8401 27.3332 13.0001 27.3332C12.1601 27.3332 11.3068 27.1465 10.6401 26.7599L3.74677 22.7732C0.933438 20.8799 0.773438 20.5865 0.773438 17.6132V10.3733C0.773438 7.39992 0.933438 7.11992 3.69344 5.25325L10.6535 1.23992C11.9735 0.479922 14.0401 0.479922 15.3601 1.23992ZM17.3333 14C17.3333 16.3932 15.3932 18.3333 13 18.3333C10.6068 18.3333 8.66667 16.3932 8.66667 14C8.66667 11.6068 10.6068 9.66666 13 9.66666C15.3932 9.66666 17.3333 11.6068 17.3333 14Z" fill="url(#paint0_linear_660_304)"/>
<defs>
<linearGradient id="paint0_linear_660_304" x1="1.0791" y1="1.00322" x2="26.9788" y2="24.7563" gradientUnits="userSpaceOnUse">
<stop stop-color="#7979FC"/>
<stop offset="1" stop-color="#9B9BFF"/>
</linearGradient>
</defs>
</svg>
