<svg width="32" height="32" viewBox="0 0 32 32" fill="none" xmlns="http://www.w3.org/2000/svg">
<path fill-rule="evenodd" clip-rule="evenodd" d="M3.1524 17.2771C2.64649 13.761 2.39354 12.003 3.11415 10.4999C3.83476 8.9968 5.36855 8.08312 8.43614 6.25577L8.4362 6.25574L10.2827 5.15582C13.0684 3.49638 14.4613 2.66666 16.0003 2.66666C17.5394 2.66666 18.9323 3.49638 21.7179 5.15582L23.5645 6.25574L23.5649 6.25598C26.6322 8.08319 28.166 8.99686 28.8865 10.4999C29.6071 12.003 29.3542 13.7611 28.8482 17.2772L28.4766 19.8603L28.4765 19.8608C27.8266 24.3771 27.5016 26.6352 25.935 27.9843C24.3682 29.3333 22.0705 29.3333 17.4751 29.3333H14.5255C9.93015 29.3333 7.63244 29.3333 6.06569 27.9843C4.49893 26.6352 4.17399 24.3769 3.52411 19.8603L3.15241 17.2772L3.1524 17.2771ZM14.1331 18C13.5316 18 13.0662 18.5272 13.1408 19.124L13.8908 25.124C13.9534 25.6245 14.3788 26 14.8831 26H17.1175C17.6219 26 18.0473 25.6245 18.1098 25.124L18.8598 19.124C18.9344 18.5272 18.469 18 17.8675 18H14.1331Z" fill="url(#paint0_linear_404_298)"/>
<defs>
<linearGradient id="paint0_linear_404_298" x1="3.00032" y1="3" x2="29.0003" y2="29" gradientUnits="userSpaceOnUse">
<stop stop-color="#7979FC"/>
<stop offset="1" stop-color="#9B9BFF"/>
</linearGradient>
</defs>
</svg>
