<svg width="39" height="34" viewBox="0 0 39 34" fill="none" xmlns="http://www.w3.org/2000/svg">
<path d="M10.6199 14.7746C10.2777 15.2412 10.0289 15.8011 9.96667 16.4076L3.71463 12.1152L2.47044 11.2754L2.33047 10.7466L1.97276 9.39353L1.78613 8.70923L2.40823 9.14469L3.71463 10.0312L10.6199 14.7746Z" fill="#B6BFC4"/>
<path d="M24.4293 14.2615V14.3082C24.2116 14.5052 24.0197 14.7281 23.8539 14.9769L20.5879 7.0608L20.0435 5.73885L19.9502 5.49001L19.8102 5.83217L19.297 7.10745L16.1554 14.8681C15.9895 14.6296 15.7926 14.417 15.5645 14.2304L19.297 5.02344L19.8102 3.74816L19.9502 3.40601L20.0435 3.65484L20.5879 4.97679L24.4293 14.2615Z" fill="#B6BFC4"/>
<path d="M38.209 8.70923L37.898 9.84454L37.618 10.8866L37.5092 11.2754L36.6849 11.8508L36.3272 12.0841L30.1218 16.3454C30.0285 15.7389 29.7952 15.1945 29.4375 14.728L36.3272 10.0001L36.6849 9.76678L38.209 8.70923Z" fill="#B6BFC4"/>
<path d="M37.5101 11.2754L32.9533 28.243L32.5178 29.8449L32.4401 30.1559H7.55632L7.463 29.8293L2.4707 11.2754L3.71489 12.1153L9.96694 16.4077C9.9462 16.5529 9.93583 16.698 9.93583 16.8432C9.93583 17.2061 9.98767 17.5534 10.0914 17.8852C10.5424 19.2693 11.8332 20.2647 13.3573 20.2647C14.8815 20.2647 16.1723 19.2693 16.6233 17.8852C16.7322 17.5586 16.7789 17.2009 16.7789 16.8432C16.7789 16.1122 16.5456 15.4279 16.1568 14.868L19.2983 7.10743L19.8116 5.83214L19.9515 5.48999L20.0449 5.73883L20.5892 7.06077L23.8552 14.9769C23.513 15.5057 23.3109 16.1589 23.3109 16.8432C23.3109 17.2009 23.3731 17.5586 23.4664 17.8852C23.9174 19.2693 25.2082 20.2647 26.7324 20.2647C28.2565 20.2647 29.5629 19.2693 29.9984 17.8852C30.1072 17.5586 30.1539 17.2009 30.1539 16.8432C30.1539 16.6773 30.1435 16.5114 30.1228 16.3455L36.3282 12.0842L36.6859 11.8509L37.5101 11.2754Z" fill="#959DA0"/>
<path d="M19.9982 33.2024C23.8714 33.2024 27.3909 32.7575 29.95 32.0303C31.2279 31.6672 32.2805 31.2297 33.0195 30.7321C33.7498 30.2404 34.2297 29.6501 34.2297 28.971C34.2297 28.295 33.7489 27.7076 33.0191 27.2185C32.2802 26.7233 31.2276 26.2873 29.9498 25.9252C27.3909 25.1999 23.8715 24.7551 19.9982 24.7551C16.1249 24.7551 12.6055 25.1999 10.0465 25.9252C8.7687 26.2873 7.71614 26.7233 6.97726 27.2185C6.24747 27.7076 5.7666 28.295 5.7666 28.971C5.7666 29.6501 6.24655 30.2404 6.97682 30.7321C7.71579 31.2297 8.76847 31.6672 10.0463 32.0303C12.6054 32.7575 16.1249 33.2024 19.9982 33.2024Z" fill="#B6BFC4" stroke="white" stroke-width="0.5"/>
<path d="M32.8448 29.7019C32.8448 31.2105 27.0905 32.4391 19.9986 32.4391C12.9067 32.4391 7.15234 31.2105 7.15234 29.7019C7.15234 28.2089 12.9067 26.9802 19.9986 26.9802C27.0905 26.9802 32.8448 28.2089 32.8448 29.7019Z" fill="#8B9093"/>
<path d="M23.873 24.8059L20.0005 28.6939L16.1279 24.8059L20.0005 20.9333L23.873 24.8059Z" fill="white"/>
<path d="M22.9559 24.806L20.001 27.7609V21.8511L22.9559 24.806Z" fill="#93989C"/>
<path d="M20.0008 21.8508V27.7607L17.0459 24.8058L20.0008 21.8508Z" fill="#B6BFC4"/>
<path d="M20.746 17.8229C20.746 18.2273 20.4038 18.5694 19.9994 18.5694C19.5795 18.5694 19.2529 18.2273 19.2529 17.8229C19.2529 17.403 19.5795 17.0764 19.9994 17.0764C20.4038 17.0764 20.746 17.403 20.746 17.8229Z" fill="white"/>
<path d="M20.746 12.8774C20.746 13.2973 20.4038 13.6239 19.9994 13.6239C19.5795 13.6239 19.2529 13.2973 19.2529 12.8774C19.2529 12.473 19.5795 12.1309 19.9994 12.1309C20.4038 12.1309 20.746 12.473 20.746 12.8774Z" fill="white"/>
</svg>
