<svg width="40" height="40" viewBox="0 0 40 40" fill="none" xmlns="http://www.w3.org/2000/svg">
<path d="M28.1053 10.7872L22.4884 5.17021C22.3608 5.04255 22.2331 5 22.0629 5C21.7225 5 21.4672 5.25532 21.4672 5.59574V10.1064C21.4672 11.0426 22.2331 11.8085 23.1693 11.8085H27.6798C28.0202 11.8085 28.2755 11.5532 28.2755 11.2128C28.2755 11.0426 28.233 10.9149 28.1053 10.7872ZM28.2755 15.2128C28.2755 14.7447 27.8926 14.3617 27.4245 14.3617H21.4672C20.063 14.3617 18.9141 13.2128 18.9141 11.8085V5.85106C18.9141 5.38298 18.5311 5 18.063 5H9.55263C8.14842 5 6.99951 6.14894 6.99951 7.55319V27.9787C6.99951 29.383 8.14842 30.5319 9.55263 30.5319C9.55263 30.5319 17.5099 30.5319 18.1907 30.5319C18.8715 30.5319 19.0417 30.0638 18.9992 29.3404C18.9566 28.617 18.7013 25.5106 20.8289 23.0426C22.9565 20.5745 26.4458 20.4043 26.9564 20.4043C27.467 20.4043 28.3181 20.3617 28.2755 19.6383C28.233 18.9149 28.2755 15.2128 28.2755 15.2128ZM9.97815 10.3617L12.0632 10.0638C12.1058 10.0638 12.1909 10.0213 12.1909 9.97872L13.127 8.06383C13.2121 7.93617 13.3823 7.93617 13.4674 8.06383L14.4036 9.97872C14.4461 10.0213 14.4887 10.0638 14.5312 10.0638L16.6163 10.3617C16.7439 10.4043 16.829 10.5745 16.7014 10.6596L15.1695 12.1489C15.1269 12.1915 15.1269 12.234 15.1269 12.3191L15.4674 14.4043C15.5099 14.5319 15.3397 14.6596 15.2121 14.5745L13.3398 13.5957C13.2972 13.5532 13.2121 13.5532 13.1696 13.5957L11.2973 14.5745C11.1696 14.6596 10.9994 14.5319 11.042 14.4043L11.3824 12.3191C11.3824 12.2766 11.3824 12.1915 11.3398 12.1489L9.80795 10.6596C9.76539 10.5745 9.8505 10.4043 9.97815 10.3617ZM17.6375 24.5745C17.6375 25.0426 17.2545 25.4255 16.7865 25.4255H11.2547C10.7866 25.4255 10.4037 25.0426 10.4037 24.5745V23.7234C10.4037 23.2553 10.7866 22.8723 11.2547 22.8723H16.7865C17.2545 22.8723 17.6375 23.2553 17.6375 23.7234V24.5745ZM22.3182 19.4681C22.3182 19.9362 21.9353 20.3191 21.4672 20.3191H11.2547C10.7866 20.3191 10.4037 19.9362 10.4037 19.4681V18.617C10.4037 18.1489 10.7866 17.766 11.2547 17.766H21.4672C21.9353 17.766 22.3182 18.1489 22.3182 18.617V19.4681Z" fill="url(#paint0_linear_726_81)"/>
<path d="M26.9145 22.4043C23.5529 22.4043 20.8296 25.1277 20.8296 28.4894C20.8296 31.8511 23.5529 34.5745 26.9145 34.5745C30.2761 34.5745 32.9995 31.8511 32.9995 28.4894C32.9995 25.1277 30.2336 22.4043 26.9145 22.4043ZM27.9783 29.0426C27.8081 29.0426 27.6379 29 27.4677 28.9575L25.1273 31.2554C24.9571 31.4256 24.7869 31.4681 24.6167 31.4681C24.404 31.4681 24.2763 31.4256 24.1061 31.2554C23.8508 31 23.8508 30.532 24.1061 30.2341L26.4465 27.8937C26.4039 27.766 26.3614 27.5958 26.3614 27.4256C26.2762 26.3617 27.1273 25.383 28.1911 25.383C28.3613 25.383 28.5315 25.4256 28.7017 25.4681C28.7868 25.4681 28.7868 25.5532 28.7443 25.6383L27.723 26.7022C27.6379 26.7447 27.6379 26.9149 27.723 26.9575L28.4464 27.6809C28.5315 27.766 28.6592 27.766 28.7443 27.6809L29.7655 26.6596C29.8081 26.6171 29.9357 26.6171 29.9357 26.7022C29.9783 26.8724 30.0208 27.0426 30.0208 27.2128C29.9783 28.2766 29.0847 29.1277 27.9783 29.0426Z" fill="url(#paint1_linear_726_81)"/>
<defs>
<linearGradient id="paint0_linear_726_81" x1="6.99353" y1="5" x2="36.867" y2="21.6208" gradientUnits="userSpaceOnUse">
<stop stop-color="#7979FC"/>
<stop offset="1" stop-color="#9B9BFF"/>
</linearGradient>
<linearGradient id="paint1_linear_726_81" x1="20.8262" y1="22.4043" x2="36.3036" y2="32.737" gradientUnits="userSpaceOnUse">
<stop stop-color="#7979FC"/>
<stop offset="1" stop-color="#9B9BFF"/>
</linearGradient>
</defs>
</svg>
