<svg width="26" height="28" viewBox="0 0 26 28" fill="none" xmlns="http://www.w3.org/2000/svg">
<path fill-rule="evenodd" clip-rule="evenodd" d="M15.3601 1.23992L22.2535 5.22659C25.0668 7.11992 25.2268 7.39992 25.2268 10.3733V17.6265C25.2268 20.5999 25.0668 20.8799 22.3068 22.7465L15.3468 26.7599C14.6935 27.1465 13.8401 27.3332 13.0001 27.3332C12.1601 27.3332 11.3068 27.1465 10.6401 26.7599L3.74677 22.7732C0.933438 20.8799 0.773438 20.5865 0.773438 17.6132V10.3733C0.773438 7.39992 0.933438 7.11992 3.69344 5.25325L10.6535 1.23992C11.9735 0.479922 14.0401 0.479922 15.3601 1.23992ZM17.3337 14C17.3337 16.3932 15.3935 18.3333 13.0003 18.3333C10.6071 18.3333 8.66699 16.3932 8.66699 14C8.66699 11.6068 10.6071 9.66666 13.0003 9.66666C15.3935 9.66666 17.3337 11.6068 17.3337 14Z" fill="#DADBE1"/>
</svg>
