<svg width="25" height="28" viewBox="0 0 25 28" fill="none" xmlns="http://www.w3.org/2000/svg">
<path fill-rule="evenodd" clip-rule="evenodd" d="M14.6556 4.66666C14.6556 2.08933 16.7882 0 19.4187 0C22.0493 0 24.1818 2.08933 24.1818 4.66666C24.1818 7.24399 22.0493 9.33334 19.4187 9.33334C18.0904 9.33334 16.89 8.80034 16.027 7.94286L9.43333 12.3613C9.49421 12.6595 9.52621 12.9675 9.52621 13.2821C9.52621 13.9051 9.40104 14.5006 9.17428 15.045L16.4042 19.7201C17.2249 19.0625 18.2748 18.6666 19.4187 18.6666C22.0493 18.6666 24.1818 20.756 24.1818 23.3334C24.1818 25.9106 22.0493 28 19.4187 28C16.7882 28 14.6556 25.9106 14.6556 23.3334C14.6556 22.6583 14.8024 22.0157 15.0663 21.4355L7.89475 16.7982C7.05819 17.5137 5.96238 17.9487 4.76308 17.9487C2.13251 17.9487 0 15.8593 0 13.2821C0 10.7047 2.13251 8.61539 4.76308 8.61539C6.27575 8.61539 7.62229 9.30615 8.49415 10.3813L14.8845 6.09899C14.7358 5.64703 14.6556 5.16544 14.6556 4.66666Z" fill="#DADBE1"/>
</svg>
