<svg width="28" height="28" viewBox="0 0 28 28" fill="none" xmlns="http://www.w3.org/2000/svg">
<path fill-rule="evenodd" clip-rule="evenodd" d="M1.1524 15.2771C0.646491 11.7611 0.393541 10.0031 1.11415 8.49995C1.83476 6.99683 3.36855 6.08315 6.43614 4.2558L6.4362 4.25577L8.28265 3.15585C11.0684 1.49641 12.4613 0.666687 14.0003 0.666687C15.5394 0.666687 16.9323 1.49641 19.7179 3.15585L21.5645 4.25577L21.5649 4.25601C24.6322 6.08322 26.166 6.99689 26.8865 8.49995C27.6071 10.0031 27.3542 11.7611 26.8482 15.2772L26.4766 17.8603L26.4765 17.8608C25.8266 22.3771 25.5016 24.6353 23.935 25.9843C22.3682 27.3334 20.0705 27.3334 15.4751 27.3334H12.5255C7.93015 27.3334 5.63244 27.3334 4.06569 25.9843C2.49893 24.6352 2.17399 22.377 1.52411 17.8603L1.15241 15.2772L1.1524 15.2771ZM12.1328 16C11.5313 16 11.0659 16.5272 11.1405 17.1241L11.8905 23.1241C11.9531 23.6245 12.3785 24 12.8828 24H15.1172C15.6215 24 16.0469 23.6245 16.1095 23.1241L16.8595 17.1241C16.9341 16.5272 16.4687 16 15.8672 16H12.1328Z" fill="#DADBE1"/>
</svg>
