<svg width="40" height="40" viewBox="0 0 40 40" fill="none" xmlns="http://www.w3.org/2000/svg">
<path fill-rule="evenodd" clip-rule="evenodd" d="M34.0179 16.4342C33.9269 16.4284 33.8277 16.4284 33.725 16.4285H33.6994H29.6695C26.348 16.4285 23.5059 19.0636 23.5059 22.4999C23.5059 25.9362 26.348 28.5714 29.6695 28.5714H33.6994H33.725C33.8277 28.5714 33.9269 28.5714 34.0179 28.5656C35.367 28.4797 36.5602 27.4157 36.6605 25.9294C36.6672 25.8319 36.667 25.7269 36.667 25.6296V25.6031V19.3967V19.3702C36.667 19.2729 36.6672 19.1679 36.6605 19.0704C36.5602 17.5842 35.367 16.52 34.0179 16.4342ZM29.3124 24.1189C30.1674 24.1189 30.8607 23.3941 30.8607 22.4999C30.8607 21.6057 30.1674 20.8809 29.3124 20.8809C28.4572 20.8809 27.7639 21.6057 27.7639 22.4999C27.7639 23.3941 28.4572 24.1189 29.3124 24.1189Z" fill="url(#paint0_linear_529_284)"/>
<path fill-rule="evenodd" clip-rule="evenodd" d="M33.7232 30.9999C33.9627 30.9937 34.144 31.2172 34.079 31.4497C33.7565 32.6032 33.2447 33.5863 32.4233 34.4141C31.2212 35.6257 29.6968 36.1634 27.8133 36.4186C25.9833 36.6666 23.645 36.6666 20.6927 36.6666H17.2987C14.3464 36.6666 12.008 36.6666 10.178 36.4186C8.29454 36.1634 6.77012 35.6257 5.56794 34.4141C4.36574 33.2024 3.83223 31.6661 3.57901 29.7679C3.33296 27.9234 3.33299 25.5667 3.33301 22.5913V22.4086C3.33298 19.4331 3.33296 17.0764 3.57901 15.232C3.83223 13.3338 4.36574 11.7974 5.56794 10.5857C6.77012 9.3741 8.29454 8.83639 10.178 8.58119C12.008 8.3332 14.3464 8.33324 17.2987 8.33325H20.6927C23.645 8.33322 25.9833 8.3332 27.8133 8.58119C29.6968 8.83639 31.2212 9.3741 32.4233 10.5857C33.2447 11.4135 33.7565 12.3967 34.079 13.5501C34.144 13.7826 33.9627 14.0062 33.7232 13.9999L29.6688 13.9999C25.1118 13.9999 21.0955 17.6281 21.0955 22.4999C21.0955 27.3717 25.1118 30.9999 29.6688 30.9999H33.7232ZM9.35711 14.8095C8.69171 14.8095 8.15229 15.3531 8.15229 16.0237C8.15229 16.6944 8.69171 17.2381 9.35711 17.2381H15.7828C16.4482 17.2381 16.9877 16.6944 16.9877 16.0237C16.9877 15.3531 16.4482 14.8095 15.7828 14.8095H9.35711Z" fill="url(#paint1_linear_529_284)"/>
<path d="M12.9609 6.70723L16.2256 4.30201C17.9788 3.01033 20.3541 3.01033 22.1073 4.30201L25.3891 6.71986C24.017 6.6665 22.4846 6.66655 20.8046 6.66658H17.187C15.6519 6.66655 14.24 6.66651 12.9609 6.70723Z" fill="url(#paint2_linear_529_284)"/>
<defs>
<linearGradient id="paint0_linear_529_284" x1="23.5022" y1="16.4285" x2="39.3844" y2="27.9208" gradientUnits="userSpaceOnUse">
<stop stop-color="#7979FC"/>
<stop offset="1" stop-color="#9B9BFF"/>
</linearGradient>
<linearGradient id="paint1_linear_529_284" x1="3.32436" y1="8.33325" x2="40.4015" y2="35.206" gradientUnits="userSpaceOnUse">
<stop stop-color="#7979FC"/>
<stop offset="1" stop-color="#9B9BFF"/>
</linearGradient>
<linearGradient id="paint2_linear_529_284" x1="12.9574" y1="3.33325" x2="16.2206" y2="11.328" gradientUnits="userSpaceOnUse">
<stop stop-color="#7979FC"/>
<stop offset="1" stop-color="#9B9BFF"/>
</linearGradient>
</defs>
</svg>
