<svg width="40" height="40" viewBox="0 0 40 40" fill="none" xmlns="http://www.w3.org/2000/svg">
<path fill-rule="evenodd" clip-rule="evenodd" d="M19.9957 5C11.7264 5 5 11.7283 5 19.9999C5 23.2803 6.0579 26.3225 7.85625 28.7918L5.98724 34.3649L11.7528 32.5222C14.1241 34.0919 16.954 35 20.0043 35C28.2736 35 35 28.2715 35 20.0001C35 11.7286 28.2736 5.00025 20.0043 5.00025L19.9957 5ZM15.808 12.6193C15.5172 11.9227 15.2967 11.8963 14.8561 11.8784C14.7061 11.8697 14.5389 11.861 14.3535 11.861C13.7803 11.861 13.1809 12.0285 12.8194 12.3988C12.3788 12.8485 11.2855 13.8977 11.2855 16.0495C11.2855 18.2013 12.8547 20.2823 13.0662 20.5735C13.2867 20.8642 16.1255 25.3439 20.5333 27.1697C23.9802 28.5982 25.0031 28.4658 25.7875 28.2983C26.9335 28.0514 28.3706 27.2045 28.7321 26.1819C29.0937 25.1588 29.0936 24.2857 28.9877 24.1006C28.8819 23.9154 28.5908 23.8099 28.1502 23.5891C27.7095 23.3686 25.5671 22.3104 25.1616 22.1693C24.7647 22.0195 24.3858 22.0725 24.0862 22.4958C23.663 23.0866 23.2488 23.6864 22.9136 24.0478C22.6491 24.33 22.217 24.3654 21.8557 24.2153C21.3708 24.0127 20.0133 23.5361 18.3381 22.0459C17.0421 20.8908 16.1606 19.4536 15.9051 19.0215C15.6493 18.5808 15.8787 18.3247 16.0812 18.0868C16.3016 17.8133 16.5131 17.6194 16.7336 17.3635C16.954 17.108 17.0774 16.9756 17.2185 16.6757C17.3685 16.3847 17.2625 16.0848 17.1568 15.8643C17.0511 15.6438 16.1695 13.4921 15.808 12.6193Z" fill="#67C15E"/>
</svg>
