<svg width="40" height="40" viewBox="0 0 40 40" fill="none" xmlns="http://www.w3.org/2000/svg">
<path fill-rule="evenodd" clip-rule="evenodd" d="M16.3863 24.5721L16.3852 14.6685L25.8417 19.6374L16.3863 24.5721ZM37.15 12.9523C37.15 12.9523 36.8077 10.5235 35.7588 9.45393C34.4277 8.04951 32.9358 8.04289 32.2522 7.96138C27.3544 7.60449 20.0077 7.60449 20.0077 7.60449H19.9923C19.9923 7.60449 12.6456 7.60449 7.74782 7.96138C7.06313 8.04289 5.57235 8.04951 4.24016 9.45393C3.19125 10.5235 2.85 12.9523 2.85 12.9523C2.85 12.9523 2.5 15.8052 2.5 18.657V21.3315C2.5 24.1844 2.85 27.0362 2.85 27.0362C2.85 27.0362 3.19125 29.465 4.24016 30.5346C5.57235 31.939 7.32124 31.895 8.09999 32.0415C10.9 32.3124 20 32.3962 20 32.3962C20 32.3962 27.3544 32.3851 32.2522 32.0283C32.9358 31.9456 34.4277 31.939 35.7588 30.5346C36.8077 29.465 37.15 27.0362 37.15 27.0362C37.15 27.0362 37.5 24.1844 37.5 21.3315V18.657C37.5 15.8052 37.15 12.9523 37.15 12.9523Z" fill="#CE1312"/>
</svg>
